<?xml version="1.0" encoding="UTF-8"?>
<svg xmlns="http://www.w3.org/2000/svg" width="405" height="120" viewBox="570 365 405 120">
<ns0:path xmlns:ns0="http://www.w3.org/2000/svg" fill="white" d="M0 0L1024 0L1024 1024L0 1024L0 0Z" /><ns0:path xmlns:ns0="http://www.w3.org/2000/svg" fill="#132077" d="M68.9659 559.141C59.8626 567.095 61.4496 585.838 62.4761 597.015C61.6958 603.936 61.9234 614.428 62.0903 622.122C62.1042 622.763 62.1177 623.384 62.1301 623.983C62.0131 631.029 62.7471 636.984 67.9672 642.365C70.723 645.181 74.2097 647.173 78.0353 648.117C82.7816 649.303 92.4009 649.14 101 648.993C106.059 648.907 110.766 648.828 113.918 649.032C121.488 649.522 130.386 648.383 135.72 642.539C141.689 635.999 141.658 630.026 141.487 621.902C141.506 620.958 141.535 619.852 141.567 618.635L141.567 618.62C141.745 611.786 142.014 601.458 141.151 596.522C144.759 567.841 139.826 550.308 107.631 553.797C103.884 554.204 99.7324 553.992 95.4899 553.776L95.4564 553.774L95.4432 553.773C89.8358 553.486 84.0729 553.191 78.8766 554.294C75.2142 555.039 71.8028 556.707 68.9659 559.141Z" /><ns0:path xmlns:ns0="http://www.w3.org/2000/svg" fill="#7194F8" d="M68.9659 559.141C59.8626 567.095 61.4496 585.838 62.4761 597.015C65.2758 591.774 67.8408 587.139 73.2893 584.164C79.9615 580.522 120.329 580.815 128.317 583.3C134.777 585.31 138.269 590.842 141.151 596.522C144.759 567.841 139.826 550.308 107.631 553.797C103.884 554.204 99.7324 553.992 95.4899 553.776L95.4564 553.774L95.4432 553.773C89.8358 553.486 84.0729 553.191 78.8766 554.294C75.2142 555.039 71.8028 556.707 68.9659 559.141Z" /><ns0:path xmlns:ns0="http://www.w3.org/2000/svg" fill="#011AD1" d="M73.2893 584.164C67.8408 587.139 65.2758 591.774 62.4761 597.015C61.6958 603.936 61.9234 614.428 62.0903 622.122C62.1042 622.763 62.1177 623.384 62.1301 623.983C66.7921 610.588 77.8368 606.878 90.5774 607.952C96.1501 608.422 101.442 608.15 106.454 607.892L106.455 607.892L106.456 607.892C120.262 607.182 131.938 606.581 141.487 621.902C141.506 620.958 141.535 619.852 141.567 618.635L141.567 618.62C141.745 611.786 142.014 601.458 141.151 596.522C138.269 590.842 134.777 585.31 128.317 583.3C120.329 580.815 79.9615 580.522 73.2893 584.164Z" /><ns0:path xmlns:ns0="http://www.w3.org/2000/svg" fill="#011AD1" d="M101.094 376.493C94.3951 376.45 87.6968 376.407 81.0332 376.643C72.057 377.993 64.8671 382.901 63.4038 392.613C62.7435 398.635 62.8523 404.786 62.9605 410.901L62.9605 410.902L62.9605 410.903C62.9926 412.715 63.0246 414.524 63.0365 416.325C63.0478 418.026 63.0037 419.735 62.9598 421.435C62.7203 430.711 62.4873 439.737 71.2905 445.914C77.8922 450.546 85.3433 450.334 92.9144 450.119L92.9161 450.119L92.9178 450.119C95.4222 450.047 97.9397 449.976 100.444 450.079C103.082 450.187 105.913 450.123 108.696 450.06C110.051 450.03 111.396 449.999 112.701 449.989C119.266 456.475 125.79 463.002 132.273 469.569C147.824 481.189 146.682 455.161 146.103 441.966L146.099 441.877L146.096 441.818C146.006 439.728 145.929 437.969 145.94 436.748C145.966 433.72 146.019 430.654 146.073 427.568C146.287 415.343 146.506 402.799 145.013 391.006C144.294 386.467 139.739 381.119 135.581 378.875C133.483 377.756 131.206 377.009 128.853 376.667C125.857 376.251 121.931 376.332 118.898 376.412C112.979 376.569 107.036 376.531 101.094 376.493Z" /><ns0:path xmlns:ns0="http://www.w3.org/2000/svg" fill="white" d="M129.986 392.298C125.32 390.415 88.6613 390.512 81.2532 390.636C80.1209 391.194 77.477 392.578 77.5173 394.068C77.5523 395.361 77.4177 397.741 77.2483 400.733C76.5579 412.932 75.2908 435.322 82.5923 435.856C88.135 436.261 94.6102 436.17 101.09 436.078C106.988 435.995 112.889 435.912 118.094 436.203C122.529 439.117 126.159 443.286 129.791 447.165L130.994 448.251L131.532 447.838L132.009 414.725C132.017 413.93 132.045 412.944 132.076 411.83C132.254 405.562 132.546 395.252 129.986 392.298Z" /><ns0:path xmlns:ns0="http://www.w3.org/2000/svg" fill="#094CF6" d="M606.02 804.028C606.556 805.442 607.029 807.439 607.375 808.927C607.854 809.553 613.62 814.156 614.551 814.731C614.826 815.16 615.125 815.601 615.394 816.026C618.337 820.696 619.222 826.374 617.839 831.718C616.959 835.145 615.805 837.413 613.403 839.948L614.129 840.567C617.452 837.487 622.957 835.033 627.503 835.469C633.46 836.04 637.043 839.865 641.297 842.961C641.471 843.36 641.455 843.43 641.746 843.694C643.919 844.102 645.456 846.338 648.752 846.944C654.075 848.074 660.735 848.251 665.702 845.391C682.81 835.54 679.503 812.45 660.992 806.655C656.862 805.362 649.013 805.956 645.26 808.112L644.368 807.996C651.223 796.833 647.25 785.368 636.466 778.617C631.787 775.688 625.859 775.271 620.766 776.62C609.475 779.609 601.786 792.85 606.02 804.028Z" /><ns0:path xmlns:ns0="http://www.w3.org/2000/svg" fill="#094CF6" d="M606.02 804.028C606.556 805.442 607.029 807.439 607.375 808.927C607.854 809.553 613.62 814.156 614.551 814.731C619.293 816.856 622.165 819.451 625.843 823.025C630.447 819.019 633.89 816.615 638.919 813.187C639.388 811.434 642.583 808.781 644.368 807.996C651.223 796.833 647.25 785.368 636.466 778.617C631.787 775.688 625.859 775.271 620.766 776.62C609.475 779.609 601.786 792.85 606.02 804.028Z" /><ns0:path xmlns:ns0="http://www.w3.org/2000/svg" fill="white" d="M635.84 795.612C635.099 790.364 630.307 786.667 625.043 787.282C621.525 787.694 618.507 789.978 617.156 793.252C615.805 796.526 616.334 800.275 618.538 803.047C620.742 805.82 624.275 807.181 627.769 806.603C632.997 805.738 636.58 800.859 635.84 795.612Z" /><ns0:path xmlns:ns0="http://www.w3.org/2000/svg" fill="white" d="M636.042 836.216C630.825 828.382 634.472 820.074 638.919 813.187C633.89 816.615 630.447 819.019 625.843 823.025C622.165 819.451 619.293 816.856 614.551 814.731C614.826 815.16 615.125 815.601 615.394 816.026C618.337 820.696 619.222 826.374 617.839 831.718C616.959 835.145 615.805 837.413 613.403 839.948L614.129 840.567C617.452 837.487 622.957 835.033 627.503 835.469C633.46 836.04 637.043 839.865 641.297 842.961C639.752 840.194 637.737 838.761 636.042 836.216Z" /><ns0:path xmlns:ns0="http://www.w3.org/2000/svg" fill="#2C67F6" d="M644.368 807.996C642.583 808.781 639.388 811.434 638.919 813.187C639.631 813.09 639.604 813.115 640.143 812.668L640.684 812.214C642.011 811.119 643.98 809.327 645.26 808.112L644.368 807.996Z" /><ns0:path xmlns:ns0="http://www.w3.org/2000/svg" fill="white" d="M663.002 820.721C660.771 817.981 657.237 816.656 653.756 817.254C648.49 818.159 644.923 823.121 645.744 828.401C646.565 833.681 651.47 837.325 656.762 836.588C660.262 836.101 663.226 833.766 664.519 830.478C665.812 827.19 665.232 823.461 663.002 820.721Z" /><ns0:path xmlns:ns0="http://www.w3.org/2000/svg" fill="#011AD1" d="M82.1431 254.451C87.5658 254.287 107.246 232.005 112.025 227.136C108.767 226.41 98.3525 226.49 93.0304 226.531L93.0174 226.531C92.3151 226.536 91.7019 226.541 91.2061 226.543L82.0159 236.01L81.9098 194.084C81.9013 192.29 81.8667 190.432 81.8314 188.542C81.7207 182.61 81.6044 176.374 82.2759 170.872C83.2859 162.596 91.8399 161.446 98.3719 161.476C103.031 161.497 107.697 161.592 112.358 161.686C119.023 161.822 125.679 161.956 132.296 161.877C136.501 157.776 143.205 151.097 146.737 146.451C134.756 146.334 122.775 146.281 110.794 146.289C109.124 146.287 107.4 146.25 105.645 146.212L105.64 146.212L105.638 146.212C94.8723 145.982 82.9071 145.726 74.8239 153.318C65.6938 161.892 66.0469 175.816 66.3629 188.274L66.3633 188.288L66.3636 188.3C66.4205 190.549 66.4762 192.75 66.4743 194.864L66.4393 234.637C66.4882 240.104 66.7523 245.02 70.8199 249.114C73.6664 251.979 77.9756 254.578 82.1431 254.451Z" /><ns0:path xmlns:ns0="http://www.w3.org/2000/svg" fill="#7194F8" d="M616.851 153.497C611.705 153.458 606.554 153.419 601.499 153.667C575.19 157.164 572.527 176.316 573.094 198.672C573.131 200.148 573.16 201.572 573.188 202.951C573.535 220.16 573.74 230.306 588.792 244.418C581.232 225.235 586.207 205.58 608.998 201.617C614.154 200.991 619.381 200.933 624.576 200.779C614.211 199.455 598.168 198.119 591.108 189.353C587.018 184.276 587.185 175.578 593.129 171.927C598.509 168.362 606.331 168.748 613.401 169.097L613.412 169.098L613.454 169.1C616.363 169.242 619.143 169.378 621.571 169.228C622.761 169.153 624.48 169.219 626.467 169.296L626.47 169.296C633.975 169.584 645.312 170.019 646.511 163.577C648.523 152.776 637.112 153.164 629.456 153.424C628.697 153.45 627.975 153.475 627.307 153.487C623.845 153.551 620.352 153.524 616.854 153.497L616.851 153.497Z" /><ns0:path xmlns:ns0="http://www.w3.org/2000/svg" fill="#132077" d="M674.17 171.726C673.474 157.549 673.256 153.118 659.422 137.575C668.645 161.256 658.325 180.681 631.746 181.024C631.381 181.552 631.382 181.557 631.46 182.122L631.46 182.123L631.46 182.124C631.468 182.183 631.477 182.247 631.486 182.318C632.459 182.462 633.428 182.632 634.393 182.825C645.776 185.123 662.518 191.006 658.38 204.584C654.748 214.376 640.973 213.514 627.804 212.69C618.838 212.129 610.153 211.586 605.141 214.434C599.068 217.885 601.637 229.914 611.22 228.558C613.036 228.638 615.324 228.53 617.624 228.421L617.681 228.418C620.339 228.291 623.006 228.164 624.97 228.323C664.288 231.512 677.279 218.517 674.609 179.522C674.409 176.604 674.283 174.036 674.17 171.726Z" /><ns0:path xmlns:ns0="http://www.w3.org/2000/svg" fill="#011AD1" d="M633.512 374.997C625.028 374.958 616.532 374.919 608.064 375.192C599.926 375.962 593.509 378.729 588.165 385.116C585.075 388.819 582.992 393.255 582.117 397.998C580.819 404.662 581.104 413.27 581.381 421.595L581.381 421.597L581.381 421.598C581.564 427.109 581.743 432.495 581.455 437.112C581.111 442.634 581.211 448.648 581.311 454.595L581.312 454.64L581.314 454.777C581.38 458.713 581.444 462.616 581.375 466.326C581.307 470.068 583.928 474.58 588.355 473.887C595.196 472.815 595.14 467.624 595.08 462.118C595.077 461.828 595.074 461.536 595.072 461.245C595.072 451.584 594.913 442.161 594.905 432.625C594.896 430.404 594.815 427.658 594.728 424.685L594.728 424.677L594.728 424.668C594.487 416.493 594.195 406.606 595.215 401.207C595.809 398.057 597.038 394.76 599.362 392.461C604.349 387.528 618.525 388.008 632.27 388.473L632.273 388.473L632.276 388.473L632.277 388.473C647.579 388.991 662.342 389.491 663.294 382.487C663.513 380.874 662.604 378.275 661.463 377.13C660.37 376.035 659.127 375.456 657.607 375.21C654.126 374.647 650.099 374.784 646.255 374.915C644.612 374.971 643.002 375.025 641.482 375.024C638.827 375.021 636.17 375.009 633.512 374.997Z" /><ns0:path xmlns:ns0="http://www.w3.org/2000/svg" fill="#011AD1" d="M640.246 570.616C629.05 562.438 620.756 560.612 607.257 561.636C595.261 563.593 584.564 570.315 577.598 580.275C571.223 589.303 569.089 601.232 571.106 612.013C573.317 623.212 579.808 633.106 589.199 639.594C598.648 646.078 610.308 648.485 621.551 646.272C647.324 641.229 661.128 617.903 655.604 592.614C655.27 591.138 654.876 589.677 654.423 588.233C651.316 591.157 650.653 591.278 646.477 592.3C647.092 595.379 647.524 597.215 647.624 600.357C647.61 604.063 647.528 606.573 646.894 610.196C642.218 636.895 607.642 646.881 589.115 627.449C582.975 620.901 579.639 612.213 579.817 603.239C580.342 584.793 596.925 569.694 615.256 570.694C623.159 571.125 628.665 573.701 635.081 578.044C636.159 573.461 636.35 573.339 640.246 570.616Z" /><ns0:path xmlns:ns0="http://www.w3.org/2000/svg" fill="#7194F8" d="M163.26 151.655C162.953 149.326 158.873 147.113 157.139 146.237C151.804 150.824 145.487 157.112 140.257 162.017L148.577 161.986C148.517 170.637 148.51 179.289 148.556 187.941C148.568 189.309 148.585 190.598 148.601 191.811C148.845 210.111 148.86 211.304 126.711 211.156L106.528 211.188C101.483 215.99 96.1126 221.546 91.2061 226.543C91.7019 226.541 92.3151 226.536 93.0174 226.531L93.0304 226.531C98.3525 226.49 108.767 226.41 112.025 227.136C116.245 226.262 121.582 226.555 127.049 226.855L127.051 226.855L127.057 226.855L127.061 226.855C133.757 227.222 140.645 227.6 145.913 225.859C161.896 220.58 164.459 208.428 163.746 193.366C163.484 187.844 163.654 182.132 163.825 176.388C164.073 168.052 164.323 159.647 163.26 151.655Z" /><ns0:path xmlns:ns0="http://www.w3.org/2000/svg" fill="#011AD1" d="M618.012 406.991C617.611 407 617.209 407.015 616.808 407.035C615.066 408.409 613.249 409.924 613.002 412.246C612.372 418.178 617.797 420.516 622.686 420.592C626.287 420.648 629.845 420.595 633.388 420.542L633.405 420.542L633.421 420.542C637.49 420.481 641.541 420.42 645.619 420.527C639.935 436.304 620.608 430.364 615.551 446.841C613.532 453.42 609.842 478.421 623.449 473.254C627.453 469.682 627.331 464.69 627.215 459.952L627.215 459.949C627.1 455.287 626.991 450.869 630.823 448.288C644.642 438.979 658.828 439.042 659.38 417.631L659.386 417.409L659.386 417.406C659.478 413.91 659.633 408.012 654.069 407.091C642.246 406.537 629.891 406.729 618.012 406.991Z" /><ns0:path xmlns:ns0="http://www.w3.org/2000/svg" fill="#7194F8" d="M120.497 778.531C103.826 772.306 86.6541 790.768 94.6906 806.838C95.1043 807.872 95.0979 807.942 95.016 808.835C95.0039 808.968 94.9901 809.119 94.9758 809.293C95.4283 810.434 96.5118 811.723 97.2899 812.726L98.0227 811.252C102.467 815.755 108.519 820.707 113.693 824.408C115.327 823.017 117.124 821.626 118.961 820.203C128.644 812.708 139.446 804.346 133.329 790.592C130.849 785.009 126.223 780.661 120.497 778.531Z" /><ns0:path xmlns:ns0="http://www.w3.org/2000/svg" fill="#F5F7FD" d="M98.0227 811.252C96.5851 809.607 95.8933 808.643 94.6906 806.838C95.1043 807.872 95.0979 807.942 95.016 808.835C95.0039 808.968 94.9901 809.119 94.9758 809.293C95.4283 810.434 96.5118 811.723 97.2899 812.726L98.0227 811.252Z" /><ns0:path xmlns:ns0="http://www.w3.org/2000/svg" fill="white" d="M122.191 795.542C120.67 790.757 115.539 788.13 110.768 789.694C106.057 791.239 103.472 796.29 104.973 801.015C106.475 805.739 111.502 808.37 116.24 806.912C121.039 805.435 123.712 800.327 122.191 795.542Z" /><ns0:path xmlns:ns0="http://www.w3.org/2000/svg" fill="#132077" d="M576.485 833.5C580.552 847.17 597.293 851.866 609.112 843.938C610.576 842.618 611.958 841.233 613.403 839.948C615.805 837.413 616.959 835.145 617.839 831.718C619.222 826.374 618.337 820.696 615.394 816.026C615.125 815.601 614.826 815.16 614.551 814.731C613.62 814.156 607.854 809.553 607.375 808.927C589.934 799.806 570.901 814.735 576.485 833.5Z" /><ns0:path xmlns:ns0="http://www.w3.org/2000/svg" fill="white" d="M605.878 825.114C604.781 820.034 599.818 816.769 594.719 817.774C591.339 818.441 588.581 820.88 587.507 824.153C586.433 827.427 587.21 831.026 589.539 833.565C591.867 836.104 595.385 837.189 598.739 836.402C603.798 835.215 606.974 830.194 605.878 825.114Z" /><ns0:path xmlns:ns0="http://www.w3.org/2000/svg" fill="#132077" d="M627.503 835.469C622.957 835.033 617.452 837.487 614.129 840.567L613.403 839.948C611.958 841.233 610.576 842.618 609.112 843.938L609.52 845.013C596.512 861.783 613.791 883.636 633.038 877.165C640.369 874.7 646.636 866.916 647.451 859.251C648.116 852.995 645.709 848.275 641.746 843.694C641.455 843.43 641.471 843.36 641.297 842.961C637.043 839.865 633.46 836.04 627.503 835.469Z" /><ns0:path xmlns:ns0="http://www.w3.org/2000/svg" fill="#8FA4F0" d="M613.403 839.948C611.958 841.233 610.576 842.618 609.112 843.938L609.52 845.013C610.951 843.676 612.827 841.966 614.129 840.567L613.403 839.948Z" /><ns0:path xmlns:ns0="http://www.w3.org/2000/svg" fill="white" d="M628.186 866.75C639.778 862.334 636.965 848.075 625.242 847.522C622.204 848.543 619.089 850.068 618.061 853.269C614.949 862.966 619.495 866.487 628.186 866.75Z" /><ns0:path xmlns:ns0="http://www.w3.org/2000/svg" fill="#7194F8" d="M125.931 841.269C122.043 837.371 118.968 834.288 112.395 834.453C102.493 839.252 91.1575 847.783 93.2004 860.213C95.0727 871.605 103.941 877.866 115.126 877.846C133.447 875.605 141.339 856.213 127.735 843.056C127.106 842.448 126.509 841.849 125.931 841.269Z" /><ns0:path xmlns:ns0="http://www.w3.org/2000/svg" fill="white" d="M122.499 853.936C120.658 849.21 115.329 846.877 110.607 848.729C105.901 850.575 103.577 855.883 105.412 860.594C107.248 865.304 112.55 867.641 117.265 865.816C121.995 863.986 124.341 858.662 122.499 853.936Z" /><ns0:path xmlns:ns0="http://www.w3.org/2000/svg" fill="#7194F8" d="M151.696 810.595C145.875 806.932 143.038 806.797 136.408 807.077L135.607 807.389C130.105 809.395 123.361 821.174 120.695 826.092C118.015 831.034 130.899 844.189 134.259 847.437C139.22 847.961 140.412 847.905 145.237 847.456C145.907 847.25 146.373 847.15 146.997 846.972C163.388 842.298 165.881 819.522 151.696 810.595Z" /><ns0:path xmlns:ns0="http://www.w3.org/2000/svg" fill="white" d="M143.412 819.034C140.58 818.944 138.27 818.93 135.442 818.984C135.343 824.791 135.339 830.598 135.428 836.405L135.778 836.439L135.781 836.439C141.23 836.971 142.188 837.064 146.923 833.963C151.409 827.596 149.482 823.174 143.412 819.034Z" /><ns0:path xmlns:ns0="http://www.w3.org/2000/svg" fill="#011AD1" d="M85.2493 847.607C88.0302 847.91 90.2735 847.82 93.0882 847.691C98.2165 841.123 103.083 835.853 108.748 829.814C105.675 824.385 101.003 817.873 97.2899 812.726C96.5118 811.723 95.4283 810.434 94.9758 809.293C92.9204 807.363 92.9451 807.13 90.2549 806.858C62.2433 804.026 57.2323 844.568 85.2493 847.607Z" /><ns0:path xmlns:ns0="http://www.w3.org/2000/svg" fill="white" d="M92.801 818.74C90.3912 818.629 88.4686 818.581 86.0548 818.614C76.0452 821.401 75.3151 832.351 85.425 836.036C87.9446 836.065 90.2648 836.026 92.7806 835.973C92.9064 830.229 92.9133 824.484 92.801 818.74Z" /><ns0:path xmlns:ns0="http://www.w3.org/2000/svg" fill="#0F0F11" d="M821.497 611.969C821.497 598.304 815.141 593.058 801.468 594.065C791.363 596.547 786.687 604.014 789.645 614.221C790.786 618.023 793.448 621.185 797 622.957C801.799 625.359 815.12 626.571 819.198 619.747C819.651 618.987 817.015 616.781 815.655 615.643L815.65 615.639C815.423 615.448 815.231 615.288 815.096 615.17C813.487 616.089 811.335 617.271 809.501 617.511C805.109 618.086 800.282 618.041 798.327 613.309C798.319 613.291 798.311 613.271 798.302 613.249C798.154 612.899 797.846 612.167 798.525 611.995C803.439 611.873 808.376 611.906 813.312 611.94L813.598 611.942L813.903 611.944C816.436 611.96 818.969 611.977 821.497 611.969Z" /><ns0:path xmlns:ns0="http://www.w3.org/2000/svg" fill="white" d="M802.677 600.525L802.496 600.537C800.442 601.903 799.167 602.748 798.092 605.187C797.004 607.655 804.486 607.181 808.065 606.954C808.766 606.909 809.317 606.874 809.625 606.873C814.698 606.866 813.134 605.098 810.262 601.851C810.113 601.683 809.962 601.511 809.807 601.336C808.744 600.129 804.528 600.404 802.677 600.525Z" /><ns0:path xmlns:ns0="http://www.w3.org/2000/svg" fill="#0F0F11" d="M304.005 611.553C304.042 599.758 299.97 593.068 286.903 593.647C275.718 595.434 269.986 601.279 272.099 613.245C274.177 625.017 290.495 627.825 299.299 622.282C302.356 620.39 300.922 618.99 299.117 617.227L299.116 617.226L299.115 617.225C298.901 617.016 298.681 616.801 298.463 616.58C296.808 616.4 295.271 616.787 293.711 617.18L293.705 617.181C292.276 617.542 290.827 617.907 289.25 617.846C286.511 617.74 283.99 617.332 282.016 615.245C281.837 615.057 279.771 612.615 280.842 611.945C285.535 611.582 290.325 611.598 295.11 611.614L295.114 611.614C298.086 611.624 301.058 611.634 304.005 611.553Z" /><ns0:path xmlns:ns0="http://www.w3.org/2000/svg" fill="white" d="M292.312 601.294C291.241 600.258 288.071 600.104 286.499 600.045C282.154 601.664 282.092 602.512 280.235 606.586C283.408 606.611 286.581 606.614 289.753 606.596C290.344 606.591 290.953 606.611 291.545 606.631L291.571 606.632L291.572 606.632C295.151 606.752 298.054 606.849 292.312 601.294Z" /><ns0:path xmlns:ns0="http://www.w3.org/2000/svg" fill="#0F0F11" d="M443.886 616.726C444.314 604.366 444.707 592.973 427.705 593.656C422.046 594.391 421.317 594.483 416.176 597.411C417.098 599.626 417.667 601.292 418.392 603.583C421.952 601.574 426.416 599.463 430.695 600.718C432.059 601.114 433.201 602.051 433.854 603.312C435.29 606.023 434.705 607.164 431.752 606.668C422.701 605.149 409.482 610.002 416.297 621.425C420.15 624.74 422.378 625.231 427.394 625.263C430.878 625.286 431.785 624.467 432.72 623.623L432.721 623.622C433.192 623.196 433.671 622.764 434.49 622.431C435.282 622.577 435.308 624.43 436.022 624.502C437.881 624.69 439.873 624.657 441.812 624.624C442.475 624.613 443.132 624.602 443.775 624.6C443.704 622.01 443.795 619.357 443.885 616.749L443.886 616.726Z" /><ns0:path xmlns:ns0="http://www.w3.org/2000/svg" fill="white" d="M427.404 611.96C426.73 612.031 426.113 612.095 425.606 612.124C420.343 615.073 423.027 620.656 430.36 618.954L431.268 618.748C433.217 617.314 434.193 616.942 434.868 614.499C435.811 611.079 430.866 611.597 427.404 611.96Z" /><ns0:path xmlns:ns0="http://www.w3.org/2000/svg" fill="#011AD1" d="M430.001 419.483C429.106 419.489 428.212 419.533 427.321 419.613C423.179 420.313 421.009 420.791 417.378 423.019L416.776 423.38C417.522 425.327 418.304 427.26 419.121 429.178C422.388 427.655 429.598 424.981 432.225 427.107C438.937 432.538 434.784 432.679 429.081 432.872L429.079 432.872C424.355 433.031 418.569 433.226 417.014 436.493C413.847 443.143 415.335 445.161 418.05 448.675C425.331 453.718 432.024 450.266 434.934 448.765C435.686 448.377 436.186 448.12 436.377 448.173C436.543 448.401 436.55 448.882 436.557 449.342C436.564 449.86 436.571 450.352 436.805 450.425C438.273 450.887 440.889 450.777 442.902 450.692C443.416 450.67 443.892 450.65 444.298 450.642C444.315 449.172 444.339 447.665 444.364 446.138C444.452 440.69 444.544 434.983 444.305 429.777C443.969 422.471 436.07 419.405 430.001 419.483Z" /><ns0:path xmlns:ns0="http://www.w3.org/2000/svg" fill="white" d="M428.638 438.107L428.627 438.108C420.532 440.12 422.064 445.14 430.634 445.08C431.605 444.697 437.573 442.082 435.183 438.125C434.972 437.774 429.789 438.046 428.654 438.106L428.638 438.107Z" /><ns0:path xmlns:ns0="http://www.w3.org/2000/svg" fill="#011AD1" d="M286.208 419.579L285.473 419.603C270.257 422.695 265.721 440.229 279.312 448.785C285.839 452.894 295.167 451.371 301.183 446.111L301.521 445.82C299.565 444.239 298.664 443.423 296.889 441.612C295.831 441.938 294.911 442.299 294.05 442.638L294.046 442.64C291.284 443.725 289.109 444.579 284.813 443.299C283.309 442.851 280.038 440.521 280.528 437.997C280.865 437.636 295.215 437.643 301.08 437.646L301.363 437.646L301.59 437.646C302.596 437.647 303.274 437.648 303.475 437.644C303.459 426.403 298.207 419.239 286.208 419.579Z" /><ns0:path xmlns:ns0="http://www.w3.org/2000/svg" fill="white" d="M284.698 426.569L284.437 426.587C283.179 427.233 278.018 430.552 281.2 432.865C281.517 433.095 288.524 432.966 291.482 432.911L291.544 432.91C292.047 432.901 292.426 432.893 292.625 432.891L293.375 432.866C294.344 432.843 295.628 432.672 295.238 431.349C293.647 425.944 288.946 426.272 284.698 426.569Z" /><ns0:path xmlns:ns0="http://www.w3.org/2000/svg" fill="#0F0F11" d="M960.703 618.118C961.225 606.074 961.781 593.207 945.798 593.683C945.673 593.696 945.511 593.713 945.318 593.732L945.316 593.732C942.513 594.011 933.156 594.944 933.426 597.966C933.481 598.581 934.918 602.108 935.262 602.955L936.492 602.474C940.445 600.943 949.116 598.72 951.357 603.515C952.909 606.836 949.119 606.938 944.565 607.06C940.09 607.18 934.877 607.319 933.267 610.552C930.975 615.155 930.962 616.31 932.7 620.903C935.961 624.231 936.871 624.336 939.661 624.66C940.433 624.749 941.349 624.855 942.499 625.051C945.505 625.563 949.07 624.044 950.973 623.233C951.601 622.965 952.048 622.775 952.235 622.759C952.913 625.11 955.362 624.879 958.045 624.626L958.048 624.626C958.866 624.549 959.705 624.47 960.522 624.461C960.517 622.429 960.609 620.287 960.703 618.118Z" /><ns0:path xmlns:ns0="http://www.w3.org/2000/svg" fill="white" d="M945.222 611.678C944.987 611.684 944.799 611.689 944.673 611.692C938.274 613.34 938.167 620.299 947.741 618.911C949.3 618.232 955.112 614.767 951.283 611.834C950.872 611.519 946.885 611.631 945.222 611.678Z" /><ns0:path xmlns:ns0="http://www.w3.org/2000/svg" fill="#0F0F11" d="M714.493 584.699C704.574 584.753 694.654 584.7 684.736 584.542C684.517 595.709 684.594 608.317 684.665 619.919C684.674 621.478 684.683 623.019 684.692 624.536L694.136 624.518C694.098 619.672 694.12 614.826 694.201 609.98C694.597 609.977 695.507 609.992 696.719 610.012L696.724 610.012L696.732 610.012C701.711 610.093 711.759 610.257 712.201 609.627C712.758 608.833 712.636 606.724 712.546 605.185L712.545 605.164C712.517 604.684 712.493 604.26 712.494 603.951C712.109 602.141 701.964 602.5 696.805 602.683L696.722 602.686C695.624 602.725 694.762 602.755 694.279 602.753C694.273 599.217 694.293 595.682 694.339 592.146C698.118 592.098 701.923 592.102 705.729 592.106C708.647 592.109 711.566 592.112 714.474 592.092L714.493 584.699Z" /><ns0:path xmlns:ns0="http://www.w3.org/2000/svg" fill="#0F0F11" d="M196.929 584.797C187.101 584.834 177.271 584.787 167.443 584.657C167.139 595.091 167.181 607.246 167.22 618.316C167.227 620.427 167.234 622.498 167.239 624.511C170.091 624.531 172.943 624.532 175.795 624.514C175.815 622.272 175.81 620.034 175.805 617.796C175.799 615.222 175.793 612.647 175.825 610.067C182.029 610.005 188.234 609.988 194.438 610.016L194.461 603.121C193.028 602.822 186.139 602.814 181.053 602.808C178.934 602.806 177.128 602.804 176.16 602.781C176.096 599.114 176.103 595.447 176.181 591.78C179.308 591.738 182.431 591.757 185.556 591.777C189.355 591.801 193.156 591.825 196.962 591.737L196.929 584.797Z" /><ns0:path xmlns:ns0="http://www.w3.org/2000/svg" fill="#0F0F11" d="M261.064 593.925L252.497 593.947C252.492 594.508 252.546 595.423 252.614 596.574L252.614 596.578L252.614 596.58C253.09 604.679 254.253 624.463 240.458 615.265C238.484 613.949 238.713 603.065 238.839 597.088L238.842 596.946C238.868 595.719 238.889 594.71 238.883 594.048C235.952 594.025 233.02 594.041 230.09 594.095C230.059 596.048 230.066 598 230.073 599.953L230.073 600.085C230.08 602.092 230.087 604.101 230.051 606.114L230.047 606.361C229.936 612.424 229.821 618.714 235.135 622.844C239.486 626.227 247.687 626.139 251.624 622.076C252.433 621.251 252.518 621.973 252.619 622.831C252.702 623.534 252.796 624.33 253.307 624.443C255.278 624.671 257.425 624.618 259.494 624.566C260.073 624.552 260.646 624.538 261.208 624.53C261.376 620.521 261.302 616.067 261.23 611.728L261.23 611.722L261.23 611.716C261.196 609.612 261.161 607.535 261.155 605.548L261.064 593.925Z" /><ns0:path xmlns:ns0="http://www.w3.org/2000/svg" fill="#011AD1" d="M194.984 410.556L166.224 410.513C166.288 416.467 166.233 422.516 166.178 428.561C166.109 436.054 166.041 443.543 166.2 450.841C169.054 450.889 171.91 450.877 174.764 450.803C174.674 445.855 174.649 440.906 174.688 435.957C176.218 435.944 177.761 435.957 179.307 435.971C181.681 435.992 184.062 436.013 186.407 435.936C187.431 435.902 188.282 435.898 188.99 435.894C190.757 435.885 191.637 435.88 192.107 435.438C192.693 434.889 192.645 433.664 192.882 430.912C192.791 430.362 192.739 429.518 192.423 429.09C191.77 428.837 183.121 428.906 178.056 428.946L178.032 428.946L178.017 428.946C176.462 428.959 175.25 428.968 174.72 428.965C174.642 425.21 174.63 421.453 174.684 417.698C178.234 417.65 181.794 417.661 185.357 417.673L185.366 417.673C188.583 417.684 191.802 417.695 195.019 417.661L194.984 410.556Z" /><ns0:path xmlns:ns0="http://www.w3.org/2000/svg" fill="#011AD1" d="M96.5063 174.689C96.3424 174.697 96.1965 174.704 96.0702 174.71C93.451 176.097 92.9034 176.961 91.1465 179.223C91.1426 179.905 91.1192 181.005 91.0899 182.384L91.0899 182.385C90.9306 189.879 90.5963 205.607 92.2667 207.201C92.8042 207.706 93.5286 207.962 94.264 207.908C97.3944 207.705 101.549 202.76 103.438 200.502C103.483 197.46 103.492 194.417 103.465 191.375C103.465 191.319 103.462 191.221 103.459 191.093L103.459 191.078C103.436 190.178 103.379 187.855 103.727 187.795C105.998 187.398 109.032 187.407 111.872 187.415L111.882 187.415L111.926 187.415L111.94 187.415C113.46 187.42 114.922 187.425 116.178 187.366C118.354 185.588 124.178 180.648 124.51 177.753C124.607 176.902 124.252 175.918 123.65 175.316C121.82 173.483 101.373 174.457 96.5227 174.688L96.5091 174.689L96.5063 174.689Z" /><ns0:path xmlns:ns0="http://www.w3.org/2000/svg" fill="#0F0F11" d="M331.656 593.465C331.002 593.498 330.349 593.537 329.697 593.58C328.937 593.826 323.323 596.453 323.12 596.846C322.949 596.511 322.976 595.88 323.002 595.311L323.002 595.303C323.028 594.703 323.051 594.177 322.834 594.135C321.303 593.842 318.744 593.913 316.694 593.97L316.679 593.97C316.044 593.988 315.459 594.004 314.968 594.008C314.956 595.158 314.943 596.332 314.93 597.524L314.929 597.598C314.832 606.424 314.725 616.225 315.06 624.641C317.756 624.658 320.452 624.656 323.148 624.636C323.161 623.086 323.081 621.414 322.999 619.698L322.996 619.629L322.995 619.614C322.628 612.016 322.219 603.532 329.389 600.603L329.608 600.511C338.816 600.795 338.244 610.866 337.766 619.268C337.659 621.151 337.557 622.95 337.571 624.536L346.26 624.544C346.254 622.702 346.329 620.726 346.406 618.695L346.406 618.687L346.406 618.679C346.861 606.649 347.388 592.707 331.656 593.465Z" /><ns0:path xmlns:ns0="http://www.w3.org/2000/svg" fill="#0F0F11" d="M778.955 593.896C776.13 593.871 773.304 593.88 770.479 593.923C770.454 596.04 770.458 598.319 770.462 600.603L770.462 600.636C770.469 604.199 770.476 607.771 770.371 610.751C770.136 617.428 761.672 620.125 757.735 615.58C755.526 613.031 755.906 601.733 756.091 596.232C756.122 595.309 756.147 594.55 756.154 594.022C753.268 594.005 750.383 594.003 747.498 594.015C747.487 595.118 747.467 596.333 747.447 597.617C747.353 603.487 747.237 610.772 747.787 615.105C749.004 624.703 762.116 628.069 768.823 622.198C769.27 621.807 769.625 621.137 770.222 620.892C770.618 621.122 770.611 621.984 770.605 622.766L770.605 622.77C770.599 623.451 770.595 624.071 770.854 624.163C772.166 624.624 775.375 624.554 777.481 624.507C777.988 624.496 778.431 624.487 778.768 624.486L778.891 604.25L778.955 593.896Z" /><ns0:path xmlns:ns0="http://www.w3.org/2000/svg" fill="#0F0F11" d="M863.34 616.765L863.34 616.763C863.628 605.367 863.928 593.48 848.947 593.6C847.229 593.963 841.136 596.575 840.73 597.02C840.539 596.785 840.54 596.253 840.541 595.715C840.542 595.023 840.543 594.323 840.137 594.238C838.423 593.881 835.812 593.956 833.65 594.018L833.649 594.018L833.647 594.018C833.045 594.035 832.478 594.051 831.975 594.057L832.027 624.445L840.463 624.465C840.464 623.064 840.397 621.568 840.328 620.026L840.328 620.022L840.325 619.953L840.325 619.951L840.325 619.949C840.019 613.149 839.674 605.495 844.801 601.374C855.667 598.439 855.205 609.875 854.845 618.786L854.845 618.788C854.76 620.876 854.681 622.826 854.755 624.419L854.769 624.419L854.776 624.419C857.763 624.442 860.335 624.462 863.324 624.284C863.211 621.931 863.274 619.413 863.337 616.868L863.339 616.794L863.34 616.765Z" /><ns0:path xmlns:ns0="http://www.w3.org/2000/svg" fill="#011AD1" d="M260.037 419.656C257.384 419.654 254.731 419.666 252.078 419.692C252.035 420.94 252.106 422.56 252.186 424.372L252.187 424.395L252.187 424.399L252.187 424.401C252.519 431.983 252.997 442.886 245.998 443.849C236.808 445.112 237.337 433.15 237.708 424.77C237.791 422.902 237.865 421.213 237.823 419.887C235.077 419.863 232.331 419.863 229.585 419.887C229.551 426.133 229.555 432.379 229.596 438.625C229.898 446.745 234.379 451.126 242.749 451.165C247.005 451.185 248.61 449.765 249.838 448.677C250.445 448.14 250.961 447.684 251.658 447.524C252.901 448.141 252.685 448.707 252.504 449.181C252.185 450.017 251.976 450.565 260.071 450.592C260.135 440.28 260.123 429.968 260.037 419.656Z" /><ns0:path xmlns:ns0="http://www.w3.org/2000/svg" fill="#011AD1" d="M333.002 419.524C332.222 419.538 331.443 419.566 330.664 419.606C328.156 420.306 325.961 421.312 324.085 423.167C323.919 423.332 323.534 423.701 323.263 423.672C323.065 423.182 323.101 422.468 323.132 421.85L323.132 421.849L323.132 421.838L323.132 421.836C323.164 421.201 323.191 420.671 322.954 420.597C321.512 420.143 318.452 420.243 316.335 420.312L316.332 420.312L316.33 420.312C315.826 420.328 315.375 420.343 315.013 420.348C315.046 430.397 315.162 440.445 315.359 450.491C317.959 450.572 320.313 450.586 322.913 450.557C322.944 448.352 322.942 446.159 322.94 443.968L322.94 443.956C322.936 440.179 322.933 436.411 323.095 432.609C325.123 429.527 324.833 429.755 327.774 427.72C327.911 427.693 328.053 427.664 328.199 427.635C330.255 427.222 333.137 426.643 334.764 427.964C338.135 430.702 337.796 440.641 337.584 446.856L337.581 446.958L337.581 446.959C337.532 448.392 337.49 449.622 337.506 450.511C340.389 450.572 343.273 450.586 346.156 450.551C346.149 448.973 346.21 447.23 346.274 445.4L346.277 445.304L346.278 445.288C346.679 433.95 347.195 419.334 333.002 419.524Z" /><ns0:path xmlns:ns0="http://www.w3.org/2000/svg" fill="#011AD1" d="M620.082 616.085C626.458 612.607 628.974 604.731 625.794 598.201C625.428 597.45 624.994 596.735 624.496 596.063C620.174 590.227 612.026 588.82 605.996 592.87C599.967 596.919 598.187 604.993 601.954 611.203C605.722 617.412 613.705 619.563 620.082 616.085Z" /><ns0:path xmlns:ns0="http://www.w3.org/2000/svg" fill="#0F0F11" d="M822.228 435.389C820.661 424.176 812.446 421.776 802.585 422.624C797.544 424.808 793.615 427.591 792.425 433.241C790.348 442.76 795.198 452.257 805.495 453.57C810.552 454.214 814.446 453.485 818.85 450.346C822.864 447.485 817.918 446.958 817.785 447.065C814.646 449.583 813.987 450.063 809.834 450.799C800.241 450.805 797.516 447.713 795.254 438.998C798.672 438.932 802.134 438.955 805.6 438.978C811.129 439.014 816.667 439.05 822.045 438.727C822.554 438.697 822.267 435.669 822.228 435.389Z" /><ns0:path xmlns:ns0="http://www.w3.org/2000/svg" fill="white" d="M818.674 436.092C819.779 425.697 808.425 424.871 804.485 425.102C800.812 426.457 797.957 428.332 796.244 431.966C795.828 432.847 794.599 436.369 796.476 436.414C799.893 436.495 803.322 436.481 806.746 436.467L806.749 436.467C807.917 436.462 809.084 436.457 810.25 436.456C810.562 436.455 811.025 436.461 811.578 436.469L811.671 436.47L811.676 436.47L811.682 436.47C814.262 436.507 818.624 436.57 818.674 436.092Z" /><ns0:path xmlns:ns0="http://www.w3.org/2000/svg" fill="#0F0F11" d="M958.662 440.49C958.865 430.724 959.046 422.019 945.177 422.153C943.415 422.413 935.637 423.737 934.606 426.522C934.083 427.936 936.232 429.247 937.163 427.71C941.676 424.958 950.25 423.472 953.657 428.688C954.365 429.772 955.87 435.203 954.425 435.333C952.678 435.49 950.739 435.495 948.762 435.499L948.761 435.499C940.249 435.518 931.02 435.539 933.247 447.762C934.829 450.595 936.298 452.407 939.718 453.262C943.071 454.101 948.355 453.803 951.549 452.148C952.608 451.6 954.827 449.629 955.382 449.599C955.743 450.024 955.677 450.68 955.613 451.33L955.612 451.336L955.611 451.342C955.495 452.476 955.382 453.587 957.516 453.41C957.64 453.436 958.351 453.306 958.395 453.156C958.875 451.521 958.773 449.18 958.683 447.133C958.658 446.553 958.634 445.996 958.624 445.486C958.592 443.815 958.627 442.138 958.662 440.49Z" /><ns0:path xmlns:ns0="http://www.w3.org/2000/svg" fill="white" d="M955.081 443.864C955.202 441.993 955.402 438.896 954.524 438.281C953.678 438.311 952.574 438.286 951.33 438.258L951.319 438.258L951.309 438.258C946.602 438.153 939.919 438.004 937.764 440.548C935.02 443.788 936.493 446.959 939.243 449.629C946.376 452.106 950.709 450.855 955.025 444.876C955.032 444.623 955.055 444.273 955.081 443.864Z" /><ns0:path xmlns:ns0="http://www.w3.org/2000/svg" fill="#0F0F11" d="M437.187 836.701L437.187 836.699C437.408 826.772 437.58 819.045 423.587 819.183C420.357 819.629 417.287 820.183 414.446 821.958C413.653 822.455 414.996 825.35 415.493 824.933C421.286 820.068 435.801 820.535 433.502 831.21C433.398 831.69 431.531 831.69 431.256 831.678C422.015 831.293 409.05 830.755 413.157 844.407C416.275 847.699 418.582 849.123 423.278 849.257C426.478 849.348 430.018 848.495 432.281 846.106C432.532 845.841 433.11 845.172 433.491 844.957C433.903 845.169 433.803 845.789 433.694 846.465C433.583 847.156 433.463 847.906 433.869 848.34C434.4 848.906 436.782 848.768 436.908 848.186C437.243 846.638 437.194 844.427 437.155 842.684C437.151 842.533 437.148 842.384 437.145 842.24C437.106 840.345 437.147 838.487 437.187 836.701Z" /><ns0:path xmlns:ns0="http://www.w3.org/2000/svg" fill="white" d="M421.493 834.076L420.984 834.091C411 837.168 415.532 849.135 428.152 845.917C430.818 844.428 436.013 839.743 433.704 834.514C433.352 833.718 424.342 833.99 421.493 834.076Z" /><ns0:path xmlns:ns0="http://www.w3.org/2000/svg" fill="#132077" d="M640.232 200.298C656.874 187.102 619.668 181.638 611.352 182.533C608.41 185.223 606.414 188.993 609.658 192.346C614.103 196.938 634.453 201.195 640.232 200.298Z" /><ns0:path xmlns:ns0="http://www.w3.org/2000/svg" fill="#0F0F11" d="M829.479 834.592C827.978 822.513 822.549 818.528 810.538 819.64C800.389 823.789 798.631 830.319 801.664 840.431C805.529 853.322 828.748 848.637 827.032 842.951C826.575 842.684 825.569 842.31 825.28 842.533C822.156 844.939 821.296 845.356 817.397 846.291C808.109 846.599 805.596 843.127 802.983 835.054C806.228 834.924 809.779 834.965 813.379 835.006L813.418 835.006L813.477 835.006C819.012 835.068 824.658 835.131 829.479 834.592Z" /><ns0:path xmlns:ns0="http://www.w3.org/2000/svg" fill="white" d="M813.266 822.018C812.908 822.04 812.505 822.065 812.035 822.089C805.673 824.599 805.092 826.585 803.037 832.611C808.046 832.826 812.814 832.82 817.82 832.826C817.99 832.826 818.23 832.827 818.521 832.829L818.536 832.829L818.542 832.829C820.713 832.841 825.67 832.869 825.784 832.326C826.476 829.034 822.53 823.893 819.743 823.026C815.965 821.85 815.574 821.874 813.27 822.018L813.266 822.018Z" /><ns0:path xmlns:ns0="http://www.w3.org/2000/svg" fill="#0F0F11" d="M307.433 832.245C305.985 823.299 301.414 819.251 292.541 819.151C283.152 820.476 277.554 826.37 278.931 836.252C279.537 840.322 281.795 843.962 285.172 846.313C290.7 850.16 300.446 850.31 304.915 844.468C305.312 843.949 305.383 842.842 304.489 842.497C303.715 842.494 301.725 843.774 300.18 844.768L300.177 844.77C299.51 845.199 298.926 845.575 298.56 845.77C288.948 847.62 284.045 844.149 281.838 834.787C284.613 834.728 287.483 834.764 290.376 834.8L290.398 834.8L290.52 834.802L290.54 834.802C296.189 834.874 301.926 834.947 307.238 834.338C307.649 834.291 307.464 832.438 307.433 832.245Z" /><ns0:path xmlns:ns0="http://www.w3.org/2000/svg" fill="white" d="M304.01 829.997C302.386 822.912 296.322 821.516 289.999 822.069C284.068 824.621 283.277 826.597 281.941 832.559C286.94 832.615 291.94 832.625 296.939 832.59C299.494 832.602 302.048 832.597 304.603 832.576L304.01 829.997Z" /><ns0:path xmlns:ns0="http://www.w3.org/2000/svg" fill="#0F0F11" d="M957.61 838.952C958.232 827.05 958.696 818.172 941.922 819.589C940.587 819.889 935.966 820.899 935.165 822.132C934.62 822.972 935.118 825.207 936.947 824.248C942.453 821.359 952.169 819.71 954.064 827.747C954.137 828.054 954.453 830.901 953.991 831.447C952.061 831.94 949.65 831.944 947.154 831.949C941.471 831.959 935.349 831.97 933.474 837.75C932.643 840.506 933.35 842.822 934.829 845.584C942.995 852.887 950.805 847.573 953.425 845.79L953.429 845.787L953.446 845.776C953.911 845.459 954.208 845.257 954.309 845.266C954.603 845.491 954.569 845.951 954.531 846.464L954.531 846.466L954.531 846.468C954.486 847.084 954.435 847.776 954.947 848.223C955.576 848.773 957.385 848.54 957.376 848.166C957.294 844.989 957.456 841.888 957.609 838.967L957.61 838.952Z" /><ns0:path xmlns:ns0="http://www.w3.org/2000/svg" fill="white" d="M954.441 834.757C953.982 833.844 942.547 834.424 940.461 834.556C931.577 840.528 938.405 849.39 949.785 845.398C952.116 843.862 956.579 839.01 954.441 834.757Z" /><ns0:path xmlns:ns0="http://www.w3.org/2000/svg" fill="#0F0F11" d="M368.445 586.596C365.633 586.561 362.822 586.544 360.01 586.547C360.007 586.869 360.015 587.34 360.025 587.892L360.026 587.975L360.028 588.083C360.071 590.479 360.136 594.19 359.665 594.26C357.377 594.602 356.234 594.515 355.732 595.041C355.252 595.542 355.357 596.604 355.608 599.134C355.646 599.52 355.688 599.941 355.731 600.399C355.791 601.034 356.935 600.998 358.004 600.963C358.854 600.936 359.657 600.911 359.83 601.225C360.123 604.022 360.133 606.723 360.143 609.431C360.154 612.679 360.166 615.938 360.667 619.385C362.717 622.256 364.452 624.572 368.252 624.939C368.392 624.953 368.541 624.967 368.696 624.983C371.586 625.272 376.896 625.803 378.003 622.615C377.904 622.398 377.683 621.849 377.419 621.194L377.416 621.187C376.822 619.71 376.011 617.696 375.883 617.708C368.088 618.437 368.183 615.206 368.433 606.687C368.48 605.076 368.533 603.275 368.539 601.277C371.058 601.181 373.579 601.138 376.1 601.148C376.126 599.018 376.135 596.888 376.128 594.757C373.574 594.685 371.02 594.597 368.467 594.492C368.437 591.86 368.429 589.228 368.445 586.596Z" /><ns0:path xmlns:ns0="http://www.w3.org/2000/svg" fill="#0F0F11" d="M884.983 586.86L884.973 586.86L884.964 586.86C882.319 586.826 879.768 586.793 877.105 586.907C877.102 587.108 877.109 587.475 877.119 587.944C877.158 589.947 877.233 593.811 876.718 594.511C876.481 594.779 875.739 594.77 874.953 594.761L874.949 594.761L874.945 594.761C873.831 594.747 872.627 594.733 872.626 595.49C872.626 595.797 872.6 596.203 872.571 596.661L872.571 596.665C872.482 598.075 872.363 599.964 872.866 600.895C873.147 601.457 874.27 601.425 875.261 601.397L875.262 601.397L875.268 601.397C876.092 601.373 876.821 601.352 876.892 601.677C877.418 604.073 877.355 606.841 877.292 609.621L877.292 609.626L877.292 609.63C877.136 616.521 876.979 623.483 885.746 625.014C888.341 625.467 896.157 625.893 894.603 621.43C894.37 621.049 894.156 620.607 893.94 620.162L893.939 620.16C893.229 618.696 892.5 617.193 891.015 617.678C884.507 619.802 885.054 610.306 885.402 604.266L885.402 604.261C885.466 603.152 885.523 602.159 885.529 601.377C888.284 601.313 890.983 601.287 893.743 601.186C893.852 598.484 893.829 597.687 893.658 595.059C891.038 595.017 888.418 594.993 885.798 594.986C885.637 592.137 885.626 589.701 885.612 586.868L884.983 586.86Z" /><ns0:path xmlns:ns0="http://www.w3.org/2000/svg" fill="#011AD1" d="M368.561 413.344C365.784 413.266 363.005 413.228 360.227 413.228C360.222 413.44 360.224 413.764 360.226 414.163L360.226 414.234L360.226 414.326C360.236 416.326 360.254 419.888 359.746 420.599C359.434 420.9 358.739 420.885 358.022 420.869C356.992 420.846 355.919 420.823 355.881 421.736C355.874 421.914 355.858 422.139 355.839 422.395L355.838 422.403C355.747 423.692 355.601 425.759 356.208 426.631C356.511 427.066 357.573 427.021 358.517 426.981C359.348 426.946 360.088 426.915 360.141 427.217C360.533 429.43 360.463 432.043 360.391 434.714C360.196 441.963 359.99 449.631 369.001 450.833C371.336 451.144 375.601 451.016 377.6 449.582C378.033 449.272 377.659 448.14 377.493 447.639C377.469 447.566 377.449 447.506 377.437 447.464C376.266 443.12 375.959 443.28 374.979 443.79L374.978 443.791C374.239 444.175 373.117 444.758 370.953 443.758C367.796 442.299 368.275 433.636 368.528 429.073C368.566 428.373 368.6 427.769 368.614 427.303C371.393 427.267 373.794 427.302 376.573 427.389C376.584 425.172 376.568 422.955 376.525 420.739L368.635 420.779C368.638 418.3 368.614 415.822 368.561 413.344Z" /><ns0:path xmlns:ns0="http://www.w3.org/2000/svg" fill="#7194F8" d="M822.207 192.081C819.34 190.549 816.414 190.468 813.253 190.644C800.795 193.325 798.493 208.76 808.299 215.919C813.003 219.354 823.163 218.195 826.774 213.758C827.566 212.91 824.763 211.718 824.58 211.749C823.734 211.895 821.575 213.393 820.761 213.815L819.772 214.031C811.744 216 808.499 212.185 805.208 205.86C805.914 205.815 808.28 205.805 811.238 205.793C817.947 205.765 827.704 205.724 828.066 205.236C828.836 204.198 828.138 200.682 827.833 199.507C826.992 196.263 825.193 193.676 822.207 192.081Z" /><ns0:path xmlns:ns0="http://www.w3.org/2000/svg" fill="white" d="M812.857 194.015C812.527 194.042 812.203 194.068 811.886 194.09C806.999 196.202 806.999 198.244 805.716 203.043C810.519 203.087 815.322 203.098 820.125 203.078C820.994 203.08 821.708 203.11 822.293 203.134L822.295 203.134C824.878 203.242 824.911 203.243 824.503 200.255C824.194 198.201 823.053 196.365 821.349 195.178C818.944 193.529 815.686 193.789 812.857 194.015Z" /><ns0:path xmlns:ns0="http://www.w3.org/2000/svg" fill="#011AD1" d="M301.255 191.995C299.109 191.029 297.222 190.624 294.884 190.626L292.999 190.951C284.905 192.378 281.365 199.407 282.837 207.003C284.855 217.408 299.548 220.859 306.685 213.644C307.457 212.825 306.18 211.76 305.48 211.177L305.477 211.174L305.474 211.172C305.371 211.086 305.28 211.011 305.211 210.949C304.782 210.563 303.61 211.488 302.828 212.106L302.824 212.11C302.6 212.288 302.408 212.439 302.276 212.527C298.72 213.677 294.976 214.154 291.499 212.391C289.219 211.235 287.775 209.458 287.068 206.995C286.976 206.673 286.909 206.3 287.042 205.978C287.16 205.691 287.447 205.591 287.728 205.531C288.917 205.279 292.681 205.353 296.709 205.432L296.715 205.432L296.72 205.432L296.747 205.433L296.781 205.434C302.34 205.541 308.374 205.659 308.825 204.941C309.496 203.875 308.62 201.065 308.249 200.005C307.033 196.523 304.659 193.527 301.255 191.995Z" /><ns0:path xmlns:ns0="http://www.w3.org/2000/svg" fill="white" d="M304.399 200.508C303.056 195.466 299.826 194.587 295.113 194.169C290.395 195.012 288.118 195.889 287.349 200.985L287.208 201.886C287.191 202.001 287.175 202.116 287.159 202.231C290.058 202.298 292.893 202.302 295.761 202.307C296.553 202.308 297.347 202.309 298.146 202.312C298.526 202.332 299.451 202.43 300.49 202.541L300.525 202.545C302.32 202.735 304.44 202.959 304.674 202.879C304.86 202.579 304.49 200.847 304.399 200.508Z" /><ns0:path xmlns:ns0="http://www.w3.org/2000/svg" fill="#011AD1" d="M425.458 191.021C425.32 191.031 425.182 191.041 425.044 191.05C424.033 191.305 418.17 192.762 417.856 194.083C417.164 197.002 418.568 197.566 420.789 196.104C424.187 194.577 431.564 192.801 433.588 197.233C433.885 197.883 434.836 201.842 433.506 202.003C432.199 202.161 430.705 202.166 429.147 202.171C424.617 202.186 419.552 202.204 417.023 205.98C415.501 208.253 416.192 211.633 417.329 213.937L417.612 214.523C424.685 220.118 430.076 217.037 432.887 215.43L432.888 215.429L432.889 215.428C433.726 214.948 434.334 214.601 434.689 214.653C434.909 214.824 434.909 215.207 434.909 215.624C434.908 216.119 434.908 216.661 435.279 216.948C435.64 217.228 438.192 217.661 438.727 216.933C439.03 210.707 439.013 203.988 438.4 197.753C438.061 195.248 435.479 192.83 434.195 192.153C431.28 190.617 428.37 190.819 425.462 191.021L425.458 191.021Z" /><ns0:path xmlns:ns0="http://www.w3.org/2000/svg" fill="white" d="M434.267 205.639C433.515 204.985 424.321 205.503 422.828 205.599C416.37 211.266 423.37 215.649 431.251 213.201C432.32 212.305 436.385 207.48 434.267 205.639Z" /><ns0:path xmlns:ns0="http://www.w3.org/2000/svg" fill="#7194F8" d="M953.03 192.405C950.864 190.848 948.261 190.794 945.701 190.678C943.055 190.959 938.922 191.278 936.778 192.994C936.097 193.539 937.019 196.702 937.36 196.965C937.969 196.774 938.532 196.143 939.014 195.767C941.723 193.659 945.762 193.507 949.016 193.933C952.274 194.359 953.735 198.182 953.428 201.063C953.405 201.281 953.208 201.71 952.975 201.821C951.341 202.235 949.269 202.215 947.114 202.193L947.112 202.193C942.156 202.144 936.759 202.091 935.228 207.311C934.851 208.599 935.01 210.736 935.131 212.351L935.155 212.677C936.537 215.003 937.834 216.82 940.502 217.451C944.605 218.423 949.353 218.089 952.611 215.272C952.856 215.061 953.31 214.767 953.664 214.712C953.989 214.852 953.99 215.263 953.991 215.719C953.993 216.226 953.994 216.787 954.439 217.094C954.827 217.491 956.905 217.716 957.014 216.988C957.3 215.071 957.254 213.037 957.208 211.005L957.208 210.981L957.208 210.977C957.189 210.138 957.17 209.299 957.174 208.468C957.177 207.762 957.196 207.033 957.215 206.29C957.344 201.256 957.488 195.609 953.03 192.405Z" /><ns0:path xmlns:ns0="http://www.w3.org/2000/svg" fill="white" d="M953.213 205.37C952.769 204.728 944.305 205.088 942.727 205.157C935.538 208.38 938.763 216.285 949.304 214.195C950.753 213.143 955.384 208.504 953.213 205.37Z" /><ns0:path xmlns:ns0="http://www.w3.org/2000/svg" fill="#0F0F11" d="M733.131 581.799L724.709 581.862C724.45 593.692 724.324 606.508 724.99 618.256C725.403 625.541 734.346 625.042 739.131 624.183C739.719 623.18 739.626 622.669 739.433 621.607C739.414 621.499 739.393 621.386 739.372 621.266C738.687 617.367 737.428 617.689 736.233 617.995C734.775 618.368 733.413 618.716 733.302 611.361L733.131 581.799Z" /><ns0:path xmlns:ns0="http://www.w3.org/2000/svg" fill="#011AD1" d="M214.86 408.023C212.089 408.009 209.317 408.018 206.546 408.049L206.519 432.757C206.518 433.741 206.505 434.723 206.491 435.693C206.35 445.634 206.229 454.234 220.73 450.467L221.068 449.906C221.738 448.819 221.473 448.541 221.16 448.213C220.995 448.041 220.817 447.855 220.754 447.531C220.385 445.644 220.509 444.923 220.207 444.596C219.821 444.18 218.744 444.404 215.07 443.675C214.59 436.408 214.691 427.737 214.789 419.476L214.791 419.274C214.837 415.363 214.881 411.549 214.86 408.023Z" /><ns0:path xmlns:ns0="http://www.w3.org/2000/svg" fill="#0F0F11" d="M215.801 582.004L207.483 582.011C207.431 590.001 207.425 597.992 207.463 605.982C207.463 606.559 207.446 607.311 207.426 608.172L207.426 608.183L207.426 608.187C207.338 612.117 207.199 618.304 208.37 620.51C211.456 626.328 216.816 625.949 222.212 623.807C222.336 622.195 221.29 617.919 219.262 618.056C215.149 618.335 215.418 612.879 215.616 608.868L215.616 608.866C215.653 608.122 215.688 607.428 215.691 606.829L215.801 582.004Z" /><ns0:path xmlns:ns0="http://www.w3.org/2000/svg" fill="#0F0F11" d="M407.198 596.979C407.41 593.769 407.431 593.441 403.033 593.578C400.604 594.623 398.448 596.531 396.798 597.218C396.188 597.015 396.573 594.349 396.071 594.223C394.406 593.808 391.973 593.89 389.893 593.96L389.892 593.96L389.891 593.96C389.258 593.981 388.657 594.001 388.121 594.006C388.117 594.328 388.112 594.753 388.105 595.265L388.104 595.377C388.023 601.831 387.78 621.288 388.202 624.523C390.977 624.566 393.753 624.58 396.529 624.566C396.529 622.264 396.407 620.089 396.292 618.055C395.778 608.904 395.424 602.604 407.068 600.376C407.065 598.995 407.139 597.884 407.197 596.995L407.198 596.986L407.198 596.979Z" /><ns0:path xmlns:ns0="http://www.w3.org/2000/svg" fill="#0F0F11" d="M923.946 599.765L923.946 599.764L923.946 599.763C924.209 597.393 924.644 593.48 923.012 593.081C918.042 594.043 917.573 594.481 913.755 597.211L913.743 597.204C913.497 596.524 913.527 594.279 913.17 594.168C911.566 593.669 908.988 593.796 906.942 593.897L906.935 593.897L906.929 593.897C906.428 593.922 905.96 593.945 905.546 593.957L905.586 623.459C906.07 624.977 909.641 624.76 912.047 624.613C912.647 624.577 913.174 624.545 913.563 624.545C913.577 622.097 913.57 619.559 913.562 617.044L913.561 616.745C913.556 615.313 913.552 613.891 913.551 612.5C913.546 604.421 915.462 602.371 922.927 601.135L923.824 600.993C923.844 600.68 923.891 600.255 923.946 599.765Z" /><ns0:path xmlns:ns0="http://www.w3.org/2000/svg" fill="#011AD1" d="M407.567 423.532C407.873 420.593 408.004 419.336 404.307 419.531C401.491 420.943 399.647 422.193 397.087 423.841C396.744 424.062 396.765 423.317 396.789 422.487C396.814 421.632 396.841 420.685 396.475 420.608C394.816 420.261 392.593 420.336 390.633 420.403C390.022 420.423 389.437 420.443 388.902 420.449C388.842 430.178 388.813 440.704 389.008 450.419C391.686 450.52 394.252 450.511 396.924 450.502L396.953 450.502L397.084 450.502C397.1 449.436 397.074 448.173 397.045 446.799L397.044 446.759C396.917 440.685 396.745 432.448 399.89 429.39C401.927 427.409 403.479 427.323 405.484 427.212C406.057 427.18 406.668 427.147 407.337 427.066C407.341 425.693 407.464 424.518 407.567 423.532Z" /><ns0:path xmlns:ns0="http://www.w3.org/2000/svg" fill="#011AD1" d="M186.361 182.444C185.568 182.451 184.777 182.457 183.989 182.463C184.004 185.745 183.986 189.045 183.969 192.351L183.967 192.65L183.965 192.953C183.92 201.013 183.875 209.102 184.246 217.031C184.271 217.561 187.981 217.712 188.082 217.247C188.691 214.443 188.587 209.601 188.508 205.9L188.508 205.891L188.508 205.87C188.485 204.786 188.463 203.8 188.463 202.995C189.417 202.994 190.389 202.985 191.372 202.975L191.391 202.975C195.098 202.941 198.948 202.906 202.505 203.27C206.161 203.645 206.159 203.128 206.151 200.44L206.151 200.438C206.149 200.019 206.148 199.547 206.16 199.017L188.537 198.978L188.526 186.393C190.16 186.387 191.834 186.402 193.526 186.417L193.561 186.417L193.63 186.417C198.195 186.456 202.883 186.496 207.227 186.149C207.642 186.116 207.715 182.729 207.186 182.7C200.397 182.33 193.31 182.388 186.409 182.444L186.385 182.444L186.361 182.444Z" /><ns0:path xmlns:ns0="http://www.w3.org/2000/svg" fill="#011AD1" d="M264.137 191.292C263.833 196.686 264.09 202.089 263.83 207.524C263.665 207.801 263.496 208.076 263.335 208.356C263.213 208.568 263.103 208.788 262.982 209.001C261.893 210.932 259.98 212.905 257.751 213.457C255.425 214.034 253.05 214.062 250.937 212.753C249.219 211.689 248.522 210.165 248.16 208.237C247.971 207.232 247.998 203.942 248.026 200.511L248.026 200.503L248.026 200.439L248.026 200.429C248.062 196.02 248.1 191.405 247.689 191.113C247.073 190.675 245.517 190.822 244.385 190.929L244.381 190.929C244.035 190.962 243.728 190.991 243.501 190.998C243.496 192.162 243.482 193.421 243.469 194.734C243.416 199.768 243.355 205.578 243.698 209.709C244.39 218.025 256.34 219.562 261.786 215.603C261.817 215.636 262.018 215.414 262.283 215.12L262.285 215.118L262.287 215.115C262.814 214.532 263.591 213.67 263.79 213.983C264.052 214.396 264.033 214.859 264.013 215.335L264.013 215.339L264.013 215.339C263.988 215.918 263.962 216.517 264.443 217.071C265.066 217.79 267.976 217.626 268.022 217.179C268.497 212.565 268.448 207.513 268.401 202.617L268.401 202.602L268.401 202.545L268.401 202.504C268.384 200.765 268.367 199.046 268.375 197.375C268.377 197.204 268.385 196.951 268.395 196.643L268.395 196.64L268.395 196.637C268.446 195.037 268.545 191.949 268.037 191.003C267.862 190.676 264.173 190.646 264.137 191.292Z" /><ns0:path xmlns:ns0="http://www.w3.org/2000/svg" fill="#011AD1" d="M327.121 192.313C327.4 191.115 327.504 190.665 323.239 190.617C323.247 191.322 323.228 193.4 323.202 196.104L323.202 196.144L323.202 196.15C323.128 203.955 323.005 216.907 323.367 217.119C327.897 219.767 327.79 215.319 327.655 209.702C327.504 203.407 327.318 195.644 333.583 194.758C340.945 193.717 343.061 195.683 343.626 201.615C343.67 203.471 343.63 216.445 343.73 216.537C349.452 221.842 348.123 210.417 348.024 209.572C348.021 209.541 348.019 209.524 348.019 209.523C348.801 198.722 347.81 187.992 333.753 191.081C332.412 191.359 330.824 192.526 329.52 193.484C328.399 194.308 327.487 194.977 327.123 194.796C326.789 193.74 326.978 192.928 327.121 192.314L327.121 192.313Z" /><ns0:path xmlns:ns0="http://www.w3.org/2000/svg" fill="#0F0F11" d="M702.02 411.485L702.013 411.485L702.005 411.485C697.643 411.47 693.28 411.455 688.921 411.492L688.918 412.108L688.918 412.137L688.918 412.166C688.857 425.684 688.793 439.745 689.396 453.104C689.422 453.67 692.246 453.581 692.283 453.184C692.664 449.123 692.608 444.663 692.554 440.338L692.554 440.326L692.554 440.315L692.551 440.084L692.551 440.051C692.532 438.509 692.513 436.985 692.517 435.505C692.801 435.505 693.422 435.511 694.28 435.519C699.301 435.567 712.464 435.691 714.07 435.258C714.051 435.263 714.079 435.218 714.13 435.136L714.131 435.135C714.439 434.636 715.577 432.798 712.125 432.668C705.587 432.705 699.05 432.704 692.512 432.666C692.51 431.746 692.506 430.824 692.502 429.902C692.481 424.779 692.46 419.63 692.753 414.534C700.148 414.423 707.628 414.495 715.025 414.569C717.483 414.594 716.315 411.85 716.271 411.823C715.548 411.369 713.238 411.437 711.764 411.48L711.76 411.48L711.756 411.48C711.416 411.49 711.12 411.498 710.9 411.499C707.942 411.505 704.981 411.495 702.02 411.485Z" /><ns0:path xmlns:ns0="http://www.w3.org/2000/svg" fill="#0F0F11" d="M778.886 427.337L778.886 427.335C779.168 425.11 779.481 422.641 777.652 421.297C777.417 421.373 777.183 421.451 776.947 421.524C776.786 421.574 776.623 421.616 776.462 421.665C776.074 421.782 775.707 421.904 775.51 422.286C775.145 422.993 775.219 424.182 775.279 425.144L775.279 425.149C775.297 425.449 775.315 425.728 775.317 425.962C775.328 427.161 775.394 428.482 775.463 429.87C775.835 437.313 776.304 446.704 768.877 449.811C766.102 450.972 762.057 451.176 759.291 449.908C757.101 448.903 755.358 446.79 754.664 444.496C753.826 441.728 754.418 422.388 753.503 421.939C753.017 421.701 751.59 421.641 751.192 421.821C750.847 421.976 750.696 422.396 750.632 422.739C750.304 424.513 750.405 426.7 750.501 428.759C750.544 429.672 750.585 430.56 750.587 431.375C750.587 432.284 750.577 433.205 750.567 434.133C750.531 437.264 750.495 440.471 750.872 443.514C751.179 446.181 752.472 448.762 754.37 450.63C756.854 453.075 760.335 454.034 763.752 453.896C764.751 453.851 765.772 453.695 766.756 453.526C769.785 453.003 772.37 451.135 774.452 448.954C774.665 448.73 775.138 448.245 775.357 448.753C775.602 449.322 775.546 450.028 775.49 450.733L775.49 450.739C775.406 451.783 775.323 452.823 776.216 453.412C776.464 453.574 776.905 453.534 777.288 453.499L777.293 453.499L777.296 453.499L777.304 453.498L777.336 453.495C777.499 453.481 777.648 453.468 777.765 453.475C778.045 453.49 778.363 453.371 778.597 453.194C779.175 451.835 779.015 445.003 778.865 438.623L778.865 438.618L778.865 438.613C778.752 433.802 778.645 429.25 778.866 427.499L778.886 427.337Z" /><ns0:path xmlns:ns0="http://www.w3.org/2000/svg" fill="#0F0F11" d="M837.065 422.04C836.694 422.013 836.324 421.98 835.954 421.942C835.992 425.073 835.975 428.49 835.957 432.007C835.921 439.178 835.883 446.766 836.311 453.201C836.332 453.513 837.603 453.631 837.744 453.521C839.585 453.69 839.55 452.87 839.498 451.637L839.498 451.636L839.498 451.635L839.497 451.616C839.48 451.2 839.462 450.738 839.513 450.251C839.742 448.062 839.625 445.611 839.505 443.119L839.505 443.117C839.15 435.691 838.778 427.901 847.506 425.591C850.578 424.744 854.533 425.247 857.015 427.036C859.96 429.158 860.217 431.222 860.975 434.36C861.045 436.422 861.018 438.761 860.99 441.165C860.941 445.365 860.89 449.762 861.35 453.22C861.365 453.335 864.845 454.685 864.501 451.495C864.265 449.309 864.36 446.543 864.462 443.616L864.462 443.609C864.667 437.669 864.895 431.068 862.417 427.299C857.435 419.72 845.688 420.927 840.198 427.06C839.743 427.539 839.564 427.534 839.214 426.992C839.233 426.319 839.299 425.717 839.358 425.185L839.358 425.184C839.571 423.255 839.683 422.236 837.065 422.04Z" /><ns0:path xmlns:ns0="http://www.w3.org/2000/svg" fill="#7194F8" d="M867.908 208.927L867.908 208.924C868.039 200.433 868.201 189.953 857.14 190.183C852.977 190.614 850.554 190.506 847.573 193.796C847.126 194.29 846.797 194.499 846.34 194.007C846.319 193.443 846.355 192.959 846.386 192.546C846.499 191.046 846.54 190.497 843.499 190.552C843.317 190.555 842.877 190.749 842.862 190.944C842.56 194.758 842.601 198.69 842.642 202.617L842.642 202.655L842.642 202.663C842.67 205.288 842.698 207.91 842.623 210.494C842.618 210.668 842.612 210.864 842.605 211.076L842.604 211.092C842.546 212.964 842.449 216.114 842.712 217.489C843.432 218.169 845.809 218.06 845.905 217.505C846.362 214.849 846.262 212.143 846.163 209.508L846.163 209.507C845.949 203.756 845.747 198.34 851.378 194.482C865.074 190.396 864.474 200.987 864.008 209.204C863.695 214.72 863.443 219.168 867.616 217.39C868.009 216.602 867.942 214.437 867.908 213.341L867.908 213.337C867.905 213.243 867.902 213.157 867.9 213.08C867.863 211.799 867.885 210.393 867.908 208.927Z" /><ns0:path xmlns:ns0="http://www.w3.org/2000/svg" fill="#0F0F11" d="M845.044 820.923C845.211 819.695 845.258 819.347 842.128 818.712C841.646 825.081 841.854 833.597 842.038 841.102L842.039 841.136C842.1 843.631 842.159 846.014 842.188 848.168C842.415 848.858 845.038 848.535 845.088 848.249C845.506 845.87 845.4 842.95 845.29 839.934C844.989 831.675 844.662 822.688 855 822.06C861.453 821.668 863.873 824.283 865.482 829.91C865.517 831.906 865.5 833.947 865.483 835.998L865.483 836.009L865.483 836.039C865.448 840.3 865.413 844.601 865.84 848.629C865.895 849.139 868.452 849.046 868.516 848.509C868.806 846.093 868.789 843.554 868.772 841.018C868.759 839.075 868.746 837.133 868.871 835.25C869.066 832.317 869.159 829.291 868.106 826.494C864.517 817.028 851.373 816.57 845.535 823.996C845.498 824.042 845.18 823.982 845.168 823.935C844.827 822.544 844.952 821.607 845.042 820.933L845.043 820.927L845.044 820.923Z" /><ns0:path xmlns:ns0="http://www.w3.org/2000/svg" fill="#7194F8" d="M775.253 217.884C779 217.605 780.945 216.096 783.666 213.719C783.745 214.101 783.786 214.512 783.827 214.918C783.959 216.237 784.086 217.501 785.47 217.544C785.716 217.596 787.51 217.583 787.554 217.229C787.823 215.038 788.251 190.927 787.39 190.668C783.718 189.765 783.862 191.669 784.037 193.969L784.038 193.98C784.088 194.64 784.14 195.333 784.104 196C784.007 197.822 784.066 199.421 784.122 200.912L784.123 200.938C784.255 204.432 784.364 207.337 782.394 211.157C779.525 213.373 777.358 214.713 773.504 214.28C771.616 214.069 769.697 213.542 768.454 212.001C766.262 209.283 766.417 203.736 766.551 198.954L766.551 198.953L766.551 198.951C766.674 194.537 766.779 190.777 765.001 190.499C764.517 190.423 763.775 190.404 763.379 190.745C762.408 191.581 762.851 201.034 763.014 204.518L763.015 204.544L763.016 204.56C763.035 204.965 763.051 205.287 763.059 205.5C763.198 209.023 763.869 212.931 766.553 215.443C768.821 217.566 772.252 218.107 775.253 217.884Z" /><ns0:path xmlns:ns0="http://www.w3.org/2000/svg" fill="#0F0F11" d="M784.272 818.859C784.219 818.855 784.187 818.853 784.179 818.852C784.163 820.862 784.169 822.904 784.176 824.956C784.192 829.779 784.208 834.662 783.929 839.337C781.73 842.952 780.645 844.805 776.254 845.99C770.921 847.43 764.657 844.739 764.04 838.749C763.718 835.622 763.786 832.331 763.854 829.043L763.854 829.04C763.919 825.867 763.984 822.697 763.699 819.678C763.667 819.283 760.836 819.197 760.76 819.89C760.501 822.23 760.527 824.758 760.552 827.214L760.552 827.22L760.552 827.248L760.552 827.267C760.56 828.077 760.568 828.878 760.566 829.663C760.564 830.374 760.546 831.133 760.528 831.92L760.528 831.922L760.528 831.924C760.442 835.635 760.341 839.984 761.744 843.012C764.982 849.995 774.964 850.814 780.815 846.794C781.056 846.632 781.39 846.32 781.752 845.982C782.568 845.22 783.532 844.32 783.926 844.672C784.074 845.126 784.114 845.902 783.968 846.261C783.057 848.508 786.135 849.313 787.283 848.241C787.938 843.529 787.684 837.435 787.437 831.505L787.437 831.502L787.437 831.499L787.436 831.474C787.257 827.187 787.082 822.987 787.258 819.457C787.278 819.058 784.793 818.893 784.272 818.859Z" /><ns0:path xmlns:ns0="http://www.w3.org/2000/svg" fill="#0F0F11" d="M323.466 821.2C323.755 820.075 323.913 819.461 320.582 818.707C320.058 826.229 320.287 834.964 320.497 842.967C320.546 844.858 320.595 846.707 320.632 848.49C320.871 849.13 323.012 849.008 323.09 848.571C323.514 846.193 323.456 843.342 323.396 840.401C323.232 832.339 323.054 823.597 332.749 822.054C339.152 821.035 342.359 824.076 343.988 829.737C344.157 832.731 344.143 835.724 344.129 838.708L344.129 838.753C344.113 841.941 344.098 845.121 344.304 848.283C344.335 848.759 347.269 848.843 347.283 848.304C347.323 846.802 347.396 845.249 347.471 843.678C348.102 830.365 348.796 815.72 329.476 819.832C328.004 820.145 326.222 821.706 324.979 822.795C324.245 823.438 323.699 823.916 323.514 823.878C323.076 822.715 323.294 821.868 323.466 821.2Z" /><ns0:path xmlns:ns0="http://www.w3.org/2000/svg" fill="#0F0F11" d="M190.16 809.501C187.475 809.505 184.791 809.509 182.113 809.493C182.226 814.596 182.208 819.711 182.19 824.826L182.19 824.829C182.172 829.721 182.155 834.613 182.252 839.496C182.257 839.745 182.232 840.202 182.199 840.786C182.017 844.052 181.614 851.294 185.073 848.501C185.275 848.338 185.313 833.443 185.349 831.913C185.963 831.904 187.231 831.918 188.853 831.936L189.151 831.939L189.223 831.94C195.229 832.008 205.492 832.123 206.018 831.526C206.355 831.142 206.377 830.462 206.291 829.987C206.237 829.687 206.085 829.375 205.817 829.21C205.593 829.072 205.304 829.094 205.045 829.047L185.304 829.016C185.239 823.446 185.243 817.875 185.316 812.305C192.307 812.249 199.298 812.259 206.289 812.333C208.7 812.339 208.032 809.689 207.172 809.662C201.529 809.483 195.846 809.492 190.17 809.501L190.16 809.501Z" /><ns0:path xmlns:ns0="http://www.w3.org/2000/svg" fill="#0F0F11" d="M242.686 819.537C242.039 819.158 240.454 819.247 239.714 819.154C239.695 820.354 239.63 821.749 239.559 823.265L239.559 823.267L239.559 823.27C239.203 830.862 238.704 841.51 243.208 846.137C245.392 848.38 248.952 849.249 252 849.167C255.516 849.072 259.589 847.439 261.89 844.704C262.086 844.47 262.267 844.224 262.46 843.987C262.538 843.891 262.647 843.744 262.769 843.686C262.853 843.696 262.877 843.695 262.899 843.702C262.925 843.709 262.947 843.727 263.052 843.781C263.319 844.203 263.253 844.974 263.184 845.783L263.184 845.785L263.184 845.789C263.072 847.1 262.952 848.51 264.223 848.685C264.758 848.759 266.176 848.642 266.208 848.333C266.538 845.18 266.477 836.141 266.441 830.839C266.432 829.475 266.425 828.359 266.426 827.653C266.429 827.257 266.47 826.661 266.518 825.968C266.671 823.771 266.892 820.59 266.166 819.626C265.949 819.338 265.526 819.355 265.182 819.37C265.124 819.372 265.068 819.374 265.016 819.375L264.924 819.376C264.427 819.382 263.716 819.39 263.348 819.742C262.565 820.488 262.799 822.88 263.1 825.947C263.818 833.272 264.913 844.451 253.43 846.281C251.005 846.668 248.189 846.047 246.26 844.488C244.068 842.716 243.26 840.239 243.067 837.501C243.024 836.882 243.041 834.89 243.062 832.445L243.062 832.443L243.062 832.44C243.107 827.177 243.17 819.821 242.686 819.537Z" /><ns0:path xmlns:ns0="http://www.w3.org/2000/svg" fill="#0F0F11" d="M708.693 809.414C706.522 809.427 704.424 809.439 702.468 809.433C702.51 822.038 702.526 834.69 702.481 847.257C702.47 850.371 705.198 848.858 705.259 848.634C705.748 846.851 705.657 838.8 705.607 834.46C705.594 833.343 705.585 832.472 705.588 832.016C705.819 832.013 706.384 832.017 707.187 832.023L707.665 832.026L708.047 832.029C713.486 832.071 725.754 832.164 727.037 831.728C727.315 831.633 728.291 829.507 724.625 829.441C723.299 829.44 721.969 829.443 720.638 829.446L719.892 829.447L719.061 829.449C714.591 829.46 710.103 829.471 705.664 829.412C705.611 823.658 705.63 817.903 705.72 812.15C712.716 812.058 719.79 812.058 726.779 812.175C729.27 812.217 728.601 809.778 728.157 809.747C722.303 809.336 715.197 809.377 708.726 809.414L708.709 809.414L708.693 809.414Z" /><ns0:path xmlns:ns0="http://www.w3.org/2000/svg" fill="#011AD1" d="M369.37 185.446C368.919 184.9 367.827 184.881 365.347 184.827C365.341 185.181 365.354 185.615 365.368 186.087L365.371 186.177L365.372 186.197C365.421 187.767 365.482 189.727 365.007 190.675C364.828 191.031 364.095 190.978 363.306 190.921L363.3 190.921C362.466 190.86 361.572 190.795 361.211 191.203C360.69 191.791 360.645 193.95 361.303 194.431C361.789 194.722 362.548 194.667 363.166 194.622L363.174 194.621L363.191 194.62C363.401 194.604 363.591 194.59 363.75 194.592C363.994 194.594 364.867 194.618 364.899 194.812C365.335 197.517 365.241 200.542 365.15 203.481L365.15 203.487L365.15 203.494L365.15 203.495C364.881 212.198 364.635 220.147 378.181 216.821C378.936 216.635 378.524 214.551 378.286 213.35C378.241 213.123 378.202 212.927 378.179 212.782C369.134 216.423 369.347 208.991 369.531 202.574C369.536 202.382 369.542 202.19 369.547 202C369.591 200.386 369.573 198.679 369.555 196.999C369.547 196.165 369.538 195.337 369.537 194.531C370.129 194.533 370.801 194.542 371.501 194.552C373.171 194.576 374.999 194.601 376.281 194.53C377.643 194.455 377.693 191.69 376.892 191.225C376.155 190.798 372.407 190.914 370.492 190.973L370.488 190.973L370.485 190.973C370.047 190.987 369.705 190.998 369.518 190.998C369.512 189.757 369.566 188.77 369.609 187.985C369.683 186.631 369.724 185.876 369.37 185.446Z" /><ns0:path xmlns:ns0="http://www.w3.org/2000/svg" fill="#0F0F11" d="M884.751 420.73C884.872 418.465 885.002 416.021 883.533 414.739L882.87 415.006C880.979 415.723 881.17 417.305 881.365 418.911L881.366 418.915L881.367 418.92C881.521 420.214 881.678 421.522 880.748 422.407C880.448 422.604 879.705 422.564 878.932 422.521L878.923 422.521L878.92 422.521C877.948 422.468 876.93 422.412 876.692 422.83C875.114 425.589 877.065 425.543 878.894 425.5L878.899 425.5L878.9 425.5C880.06 425.473 881.167 425.447 881.292 426.141C881.748 428.665 881.58 431.922 881.404 435.334C881.061 441.976 880.688 449.209 884.823 452.789C886.585 454.315 890.924 454.237 892.949 453.75C893.323 453.658 893.668 453.583 893.985 453.513C896.073 453.056 896.901 452.874 896.277 450.228C895.989 450.268 895.69 450.312 895.383 450.357L895.38 450.357L895.378 450.357C891.043 450.991 885.109 451.859 884.842 445.502C884.586 439.378 884.679 432.964 884.769 426.788L884.788 425.509C885.134 425.507 885.705 425.521 886.404 425.539L886.413 425.539C889.196 425.611 893.989 425.735 894.605 425.034C896.496 422.882 893.255 422.666 892.517 422.665L884.688 422.651C884.681 422.049 884.715 421.397 884.751 420.73Z" /><ns0:path xmlns:ns0="http://www.w3.org/2000/svg" fill="#7194F8" d="M707.567 182.511C706.336 182.522 705.174 182.532 704.116 182.538C704.125 184.887 704.118 187.654 704.11 190.635L704.109 190.957L704.109 190.978C704.085 199.813 704.056 210.433 704.399 217.579C704.408 217.768 707.645 218.911 707.824 216.781C707.058 212.762 707.133 203.871 707.953 199.901L707.959 186.039C709.748 186.026 711.6 186.049 713.474 186.073C718.286 186.134 723.246 186.196 727.668 185.647C728.161 185.586 728.334 182.919 727.549 182.853C721.945 182.382 713.843 182.454 707.567 182.511Z" /><ns0:path xmlns:ns0="http://www.w3.org/2000/svg" fill="#7194F8" d="M888.248 185.378C887.839 184.907 886.817 184.969 884.371 184.899C884.333 185.649 884.354 189.962 883.887 190.314C883.449 190.644 882.769 190.622 882.095 190.599L882.094 190.599C880.886 190.559 879.695 190.52 879.941 192.511C880.107 193.861 881.674 193.831 883.147 193.803C883.639 193.793 884.12 193.784 884.535 193.826C884.544 195.01 884.466 196.513 884.379 198.186L884.379 198.188C883.97 206.075 883.365 217.743 890.744 217.659C891.526 217.65 892.24 217.664 892.888 217.677L892.935 217.678C896.726 217.756 898.207 217.786 897.677 212.927L896.873 213.302C889.059 217.135 887.663 211.64 888.08 205.25C888.223 203.061 888.192 200.57 888.161 198.124L888.161 198.092L888.161 198.06C888.142 196.561 888.123 195.08 888.146 193.698C888.362 193.706 888.712 193.727 889.148 193.752C891.358 193.883 895.778 194.143 896.198 193.543C898.949 189.604 891.442 190.325 889.096 190.551C888.785 190.58 888.564 190.602 888.471 190.602L888.449 189.652C888.437 188.76 888.462 188.039 888.482 187.456L888.482 187.449L888.482 187.444C888.52 186.322 888.541 185.715 888.248 185.378Z" /><ns0:path xmlns:ns0="http://www.w3.org/2000/svg" fill="#011AD1" d="M222.665 179.962C222.32 179.985 222.016 180.006 221.793 180.006C221.516 190.235 221.488 200.774 221.693 211.002C221.826 217.7 227.567 217.826 232.442 217.38C232.437 217.203 232.449 216.947 232.463 216.651L232.463 216.641C232.508 215.653 232.573 214.226 232.105 213.753C231.938 213.583 231.771 213.505 231.527 213.507C231.099 213.51 230.673 213.578 230.246 213.615C229.218 213.705 228.077 213.715 227.243 213.013C226.37 212.277 226.133 210.824 226.078 209.755C226.023 208.709 226.067 205.121 226.121 200.789L226.124 200.572L226.125 200.521L226.125 200.482L226.125 200.475C226.232 191.884 226.373 180.577 225.882 180.226C225.265 179.785 223.76 179.887 222.665 179.962Z" /><ns0:path xmlns:ns0="http://www.w3.org/2000/svg" fill="#0F0F11" d="M366.642 816.002C366.857 813.37 366.907 812.761 363.379 812.433C363.377 812.586 363.384 812.833 363.393 813.141L363.396 813.263L363.397 813.292L363.397 813.294L363.397 813.296C363.45 815.095 363.555 818.643 362.825 819.174C362.509 819.404 361.833 819.388 361.086 819.37L361.076 819.37C359.781 819.339 358.275 819.303 358.057 820.527C357.853 821.671 360.676 821.955 362.3 822.118L362.303 822.118C362.71 822.159 363.041 822.192 363.23 822.229L363.235 822.558C363.269 824.833 363.409 834.236 363.26 834.893C358.997 853.645 381.177 850.309 376.451 845.142C373.735 845.983 367.183 847.84 366.714 842.696C366.248 837.589 366.35 831.806 366.446 826.361L366.446 826.359L366.446 826.358C366.471 824.924 366.496 823.513 366.51 822.145C366.609 822.142 366.877 822.155 367.264 822.176L367.268 822.176L367.271 822.176C369.977 822.316 378.43 822.754 375.46 819.651C375.097 819.272 370.791 819.306 368.162 819.327L368.151 819.327L368.123 819.327L368.104 819.327C367.412 819.333 366.841 819.338 366.497 819.333C366.481 817.987 366.568 816.915 366.638 816.054L366.64 816.023L366.642 816.002Z" /><ns0:path xmlns:ns0="http://www.w3.org/2000/svg" fill="#0F0F11" d="M885.215 812.396C884.861 812.364 884.508 812.327 884.155 812.285C884.15 812.49 884.15 812.842 884.151 813.279L884.151 813.287C884.152 815.086 884.154 818.324 883.79 818.776C883.513 819.119 882.833 819.102 882.093 819.083L882.09 819.083L882.084 819.083C880.884 819.052 879.532 819.017 879.492 820.5C879.423 821.813 879.91 822.025 881.245 822.017C881.682 822.015 882.055 822.006 882.373 821.998L882.375 821.998C883.357 821.975 883.819 821.964 884.06 822.19C884.355 822.467 884.315 823.1 884.484 824.502C884.725 826.491 884.606 829.085 884.48 831.835L884.48 831.837L884.48 831.839L884.48 831.84C884.223 837.475 883.936 843.764 886.637 846.858C888.763 849.293 895.607 849.933 897.963 847.879C898.854 847.225 898.526 844.571 896.925 845.854C896.674 845.896 896.419 845.942 896.161 845.989C893.952 846.387 891.528 846.823 889.555 845.388C888.271 844.453 887.591 842.816 887.573 841.257C887.501 834.867 887.502 828.359 887.558 821.968C890.37 821.909 893.588 821.908 896.29 821.866C897.96 821.841 897.572 819.689 897.205 819.564C896.142 819.202 891.923 819.212 889.328 819.218L889.21 819.218L889.122 819.218C888.404 819.22 887.831 819.222 887.513 819.212C887.505 818.276 887.583 817.416 887.653 816.644L887.657 816.604C887.88 814.178 888.022 812.636 885.215 812.396Z" /><ns0:path xmlns:ns0="http://www.w3.org/2000/svg" fill="#011AD1" d="M650.921 577.789C648.914 574.019 645.689 574.2 641.962 574.589C636.951 577.703 636.426 580.796 639.402 586.009C641.33 589.386 644.11 588.934 647.352 588.383C651.313 586.047 653.345 582.342 650.921 577.789Z" /><ns0:path xmlns:ns0="http://www.w3.org/2000/svg" fill="#011AD1" d="M405.435 191.486C405.299 190.614 404.118 190.498 403.489 190.393C402.074 190.954 396.319 194.532 396.202 194.884C396.003 194.816 396.083 194.871 395.942 194.623L396.085 194.84C395.755 194.156 395.813 193.432 395.865 192.789L395.865 192.788C395.967 191.513 396.043 190.558 393 190.881C392.919 190.89 391.934 190.935 391.808 191.215C391.4 195.57 391.489 207.887 391.534 214.12L391.534 214.124L391.534 214.154C391.542 215.288 391.549 216.218 391.551 216.859C392.629 217.748 395.836 217.542 395.894 216.947C396.184 213.977 396.163 210.956 396.141 207.918L396.141 207.877C396.124 205.427 396.107 202.965 396.255 200.512C398.041 197.655 399.093 196.052 402.306 195.225C402.672 195.131 403.072 195.118 403.466 195.105C404.207 195.081 404.926 195.057 405.345 194.496C405.791 193.719 405.6 192.519 405.465 191.673L405.464 191.669C405.454 191.606 405.444 191.545 405.435 191.486Z" /><ns0:path xmlns:ns0="http://www.w3.org/2000/svg" fill="#0F0F11" d="M731.142 408.041C730.76 408 730.387 407.895 730.011 407.816C729.786 413.746 729.877 419.781 729.969 425.815L729.969 425.816L729.969 425.818C730.049 431.129 730.129 436.439 729.994 441.678C729.987 441.931 729.981 442.18 729.974 442.425L729.974 442.427C729.765 450.18 729.653 454.347 738.84 453.752C738.728 453.304 738.636 452.906 738.546 452.463C738.436 451.918 738.203 451.313 737.687 451.033C737.079 450.703 736.515 450.694 735.995 450.686C735.132 450.671 734.39 450.659 733.771 449.185C732.712 446.664 732.954 436.711 733.185 427.257L733.185 427.253L733.185 427.249C733.415 417.814 733.633 408.876 732.531 408.323C732.087 408.1 731.622 408.092 731.142 408.041Z" /><ns0:path xmlns:ns0="http://www.w3.org/2000/svg" fill="#0F0F11" d="M922.281 425.522C924.188 425.394 923.796 422.434 922.808 421.604L920.994 421.97C916.796 422.859 914.697 425.452 912 428.417C911.988 428.092 911.996 427.656 912.005 427.161L912.005 427.158L912.007 427.074C912.041 425.437 912.086 423.216 911.516 422.271C911.284 421.886 908.769 421.97 908.746 422.461C908.448 428.886 908.459 435.478 908.47 442.015L908.471 442.467C908.474 444.57 908.476 446.667 908.468 448.75C908.467 449.003 908.459 449.286 908.45 449.586L908.45 449.588C908.379 452.002 908.276 455.509 911.762 453.176C912.078 452.965 912.003 448.99 911.927 444.947L911.927 444.938L911.927 444.931L911.926 444.888C911.857 441.189 911.788 437.448 912.016 436.498C912.381 430.649 916.273 425.924 922.281 425.522Z" /><ns0:path xmlns:ns0="http://www.w3.org/2000/svg" fill="#7194F8" d="M743.902 178.833C743.492 178.833 743.046 178.832 742.578 178.785L742.551 201.75C742.55 203.22 742.475 204.665 742.404 206.05L742.404 206.052C742.052 212.883 741.775 218.261 750.716 218.088L750.59 217.19C750.324 214.302 749.124 214.351 748.075 214.395L748.073 214.395C747.234 214.429 746.492 214.459 746.398 212.983C745.995 206.63 746.094 200.173 746.193 193.726L746.193 193.695C746.262 189.273 746.33 184.856 746.236 180.481C746.205 178.837 745.251 178.835 743.902 178.833Z" /><ns0:path xmlns:ns0="http://www.w3.org/2000/svg" fill="#0F0F11" d="M221.747 806.296C221.414 806.248 221.083 806.187 220.751 806.133C220.41 815.421 220.53 825.059 220.647 834.524L220.648 834.576L220.649 834.624C220.685 837.502 220.721 840.363 220.744 843.194C220.779 847.546 224.918 850.331 229.11 848.447C229.044 848.212 228.988 847.973 228.919 847.739C228.799 847.329 228.545 846.986 228.155 846.791C227.754 846.59 227.168 846.588 226.757 846.53C225.811 846.398 225.015 845.84 224.52 845.035C223.139 842.793 223.434 832.793 223.707 823.538L223.707 823.522C223.964 814.836 224.201 806.811 223.015 806.482C222.599 806.367 222.17 806.357 221.747 806.296Z" /><ns0:path xmlns:ns0="http://www.w3.org/2000/svg" fill="#0F0F11" d="M742.302 806.339L741.383 806.207L741.406 831.618C741.406 832.887 741.339 834.223 741.272 835.567L741.272 835.569C740.925 842.546 740.567 849.748 749.396 849.048C748.748 847.653 748.55 846.637 746.909 846.165C746.069 845.924 744.966 844.775 744.75 843.87C744.178 837.348 744.269 830.478 744.36 823.635L744.36 823.621L744.36 823.607C744.436 817.876 744.512 812.164 744.196 806.688C744.185 806.498 742.337 806.309 742.302 806.339Z" /><ns0:path xmlns:ns0="http://www.w3.org/2000/svg" fill="#7194F8" d="M914.447 192.81C914.858 191.705 915.199 190.788 911.046 190.439C910.643 195.84 910.813 201.882 910.978 207.763L910.978 207.777L910.978 207.791C911.07 211.063 911.16 214.285 911.15 217.319C911.149 217.697 914.151 218.125 914.249 217.336C914.659 214.032 914.605 210.264 914.552 206.666L914.549 206.452L914.548 206.408C914.532 205.201 914.515 204.016 914.519 202.875L914.521 202.125C914.571 198.473 919.167 194.113 922.766 194.008C924.166 193.967 924.819 190.813 923.484 190.382C921.496 189.586 918.478 192.159 916.538 193.814L916.535 193.816L916.517 193.831C915.664 194.559 915.023 195.105 914.774 195.1C913.884 194.329 914.18 193.53 914.445 192.813L914.446 192.811L914.447 192.81Z" /><ns0:path xmlns:ns0="http://www.w3.org/2000/svg" fill="#0F0F11" d="M924.15 821.868C924.612 820.803 924.928 819.108 923.647 818.579C920.548 819.276 918.889 819.726 916.286 821.645C915.959 821.886 915.57 822.345 915.186 822.796C914.587 823.503 914.002 824.191 913.697 823.998C913.427 823.49 913.469 822.616 913.512 821.727L913.513 821.713C913.607 819.805 913.704 817.828 910.765 819.213C910.524 819.326 910.514 820.457 910.491 820.681C910.492 824.546 910.497 828.417 910.502 832.287L910.504 833.764L910.506 835.309C910.51 839.083 910.515 842.856 910.513 846.625C910.474 850.31 913.159 848.725 913.204 848.496C913.674 846.102 913.576 843.183 913.476 840.169L913.475 840.15L913.474 840.13C913.217 832.565 912.94 824.412 921.502 822.469C921.699 822.424 921.994 822.409 922.317 822.393C923.062 822.356 923.958 822.31 924.15 821.868Z" /><ns0:path xmlns:ns0="http://www.w3.org/2000/svg" fill="#0F0F11" d="M403.477 819.969C403.425 818.814 403.457 818.823 402.501 818.531C399.617 819.315 398.058 819.791 395.674 821.68C395.343 821.943 394.855 822.518 394.394 823.064C393.835 823.725 393.314 824.341 393.154 824.3C392.776 823.89 392.779 822.981 392.782 822.012L392.782 822.008C392.786 820.561 392.79 818.989 391.533 818.764C391.237 818.711 390.099 819.217 390.089 819.341C389.677 824.35 389.721 833.545 389.754 840.388L389.754 840.417L389.756 840.849C389.765 842.902 389.773 844.723 389.766 846.125C389.703 849.516 392.242 848.659 392.35 848.112C392.871 845.454 392.76 842.461 392.648 839.458L392.648 839.456C392.383 832.326 392.116 825.135 400.304 822.213C400.811 822.031 401.34 822.145 401.818 822.248L401.822 822.249C402.822 822.464 403.599 822.631 403.477 819.969Z" /><ns0:path xmlns:ns0="http://www.w3.org/2000/svg" fill="#8FA4F0" d="M712.195 199.79C710.695 199.838 709.259 199.884 707.953 199.901C707.133 203.871 707.058 212.762 707.824 216.781C708.049 213.688 708.016 210.266 707.984 206.955C707.971 205.681 707.959 204.423 707.962 203.207C710.656 203.183 713.358 203.204 716.058 203.225L716.06 203.225L716.061 203.225C719.365 203.251 722.665 203.277 725.938 203.22C726.717 203.206 726.584 200.185 726.151 200.114C722.203 199.468 716.886 199.639 712.195 199.79Z" /><ns0:path xmlns:ns0="http://www.w3.org/2000/svg" fill="#011AD1" d="M636.211 588.172C635.452 588.084 625.849 595.063 624.496 596.063C624.994 596.735 625.428 597.45 625.794 598.201C626.869 597.694 643 588.959 636.211 588.172Z" /><ns0:path xmlns:ns0="http://www.w3.org/2000/svg" fill="#8FA4F0" d="M631.746 181.024C627.231 180.763 625.47 181.983 631.486 182.318C631.477 182.247 631.468 182.183 631.46 182.124L631.46 182.123L631.46 182.122C631.382 181.557 631.381 181.552 631.746 181.024Z" />
</svg>
